G75*
%MOIN*%
%OFA0B0*%
%FSLAX25Y25*%
%IPPOS*%
%LPD*%
%AMOC8*
5,1,8,0,0,1.08239X$1,22.5*
%
%ADD10C,0.00600*%
%ADD11C,0.00000*%
%ADD12R,0.10000X0.06600*%
D10*
X0062095Y0042600D02*
X0062095Y0371600D01*
X0062862Y0371579D01*
X0063630Y0371576D01*
X0064397Y0371593D01*
X0065164Y0371628D01*
X0065930Y0371682D01*
X0066694Y0371755D01*
X0067456Y0371846D01*
X0068216Y0371957D01*
X0068972Y0372085D01*
X0069726Y0372233D01*
X0070475Y0372399D01*
X0071220Y0372583D01*
X0071961Y0372785D01*
X0072696Y0373006D01*
X0073425Y0373244D01*
X0074149Y0373500D01*
X0074866Y0373774D01*
X0075576Y0374066D01*
X0076279Y0374375D01*
X0076974Y0374701D01*
X0077660Y0375044D01*
X0078339Y0375403D01*
X0079008Y0375780D01*
X0079667Y0376172D01*
X0080317Y0376581D01*
X0080957Y0377005D01*
X0081586Y0377445D01*
X0082204Y0377900D01*
X0082810Y0378371D01*
X0083405Y0378856D01*
X0083988Y0379355D01*
X0084558Y0379869D01*
X0085116Y0380397D01*
X0085660Y0380938D01*
X0086191Y0381492D01*
X0086709Y0382059D01*
X0087212Y0382639D01*
X0087701Y0383230D01*
X0088175Y0383834D01*
X0088634Y0384449D01*
X0089078Y0385075D01*
X0089506Y0385712D01*
X0089919Y0386359D01*
X0090316Y0387016D01*
X0090696Y0387683D01*
X0091060Y0388359D01*
X0091408Y0389043D01*
X0091738Y0389736D01*
X0092051Y0390437D01*
X0092347Y0391145D01*
X0092626Y0391861D01*
X0092887Y0392582D01*
X0093130Y0393311D01*
X0093355Y0394044D01*
X0093562Y0394783D01*
X0093751Y0395527D01*
X0093921Y0396276D01*
X0094073Y0397028D01*
X0094207Y0397784D01*
X0094322Y0398543D01*
X0094418Y0399304D01*
X0094496Y0400068D01*
X0094555Y0400833D01*
X0094595Y0401600D01*
X0128095Y0401600D01*
X0128095Y0398600D01*
X0219095Y0398600D01*
X0219095Y0401600D01*
X0422095Y0401600D01*
X0422074Y0400845D01*
X0422071Y0400089D01*
X0422087Y0399333D01*
X0422120Y0398578D01*
X0422172Y0397824D01*
X0422242Y0397072D01*
X0422331Y0396321D01*
X0422437Y0395573D01*
X0422561Y0394827D01*
X0422704Y0394085D01*
X0422864Y0393346D01*
X0423042Y0392612D01*
X0423238Y0391882D01*
X0423452Y0391157D01*
X0423682Y0390437D01*
X0423931Y0389724D01*
X0424196Y0389016D01*
X0424478Y0388315D01*
X0424778Y0387621D01*
X0425094Y0386934D01*
X0425426Y0386255D01*
X0425775Y0385585D01*
X0426140Y0384923D01*
X0426520Y0384270D01*
X0426917Y0383627D01*
X0427328Y0382993D01*
X0427755Y0382369D01*
X0428197Y0381756D01*
X0428654Y0381154D01*
X0429125Y0380563D01*
X0429610Y0379984D01*
X0430109Y0379416D01*
X0430622Y0378861D01*
X0431148Y0378318D01*
X0431687Y0377788D01*
X0432238Y0377271D01*
X0432802Y0376768D01*
X0433378Y0376278D01*
X0433965Y0375803D01*
X0434564Y0375342D01*
X0435174Y0374895D01*
X0435794Y0374464D01*
X0436425Y0374047D01*
X0437066Y0373646D01*
X0437716Y0373260D01*
X0438375Y0372891D01*
X0439043Y0372537D01*
X0439719Y0372199D01*
X0440403Y0371878D01*
X0441095Y0371574D01*
X0441794Y0371286D01*
X0442499Y0371016D01*
X0443211Y0370762D01*
X0443929Y0370526D01*
X0444653Y0370307D01*
X0445381Y0370106D01*
X0446114Y0369922D01*
X0446852Y0369756D01*
X0447593Y0369609D01*
X0448337Y0369479D01*
X0449085Y0369367D01*
X0449835Y0369273D01*
X0450587Y0369197D01*
X0451340Y0369139D01*
X0452095Y0369100D01*
X0452095Y0319100D01*
X0452093Y0318960D01*
X0452087Y0318820D01*
X0452077Y0318680D01*
X0452064Y0318540D01*
X0452046Y0318401D01*
X0452024Y0318262D01*
X0451999Y0318125D01*
X0451970Y0317987D01*
X0451937Y0317851D01*
X0451900Y0317716D01*
X0451859Y0317582D01*
X0451814Y0317449D01*
X0451766Y0317317D01*
X0451714Y0317187D01*
X0451659Y0317058D01*
X0451600Y0316931D01*
X0451537Y0316805D01*
X0451471Y0316681D01*
X0451402Y0316560D01*
X0451329Y0316440D01*
X0451252Y0316322D01*
X0451173Y0316207D01*
X0451090Y0316093D01*
X0451004Y0315983D01*
X0450915Y0315874D01*
X0450823Y0315768D01*
X0450728Y0315665D01*
X0450631Y0315564D01*
X0450530Y0315467D01*
X0450427Y0315372D01*
X0450321Y0315280D01*
X0450212Y0315191D01*
X0450102Y0315105D01*
X0449988Y0315022D01*
X0449873Y0314943D01*
X0449755Y0314866D01*
X0449635Y0314793D01*
X0449514Y0314724D01*
X0449390Y0314658D01*
X0449264Y0314595D01*
X0449137Y0314536D01*
X0449008Y0314481D01*
X0448878Y0314429D01*
X0448746Y0314381D01*
X0448613Y0314336D01*
X0448479Y0314295D01*
X0448344Y0314258D01*
X0448208Y0314225D01*
X0448070Y0314196D01*
X0447933Y0314171D01*
X0447794Y0314149D01*
X0447655Y0314131D01*
X0447515Y0314118D01*
X0447375Y0314108D01*
X0447235Y0314102D01*
X0447095Y0314100D01*
X0384595Y0314100D01*
X0384440Y0314067D01*
X0384285Y0314030D01*
X0384131Y0313989D01*
X0383979Y0313945D01*
X0383827Y0313896D01*
X0383677Y0313844D01*
X0383529Y0313788D01*
X0383381Y0313729D01*
X0383235Y0313665D01*
X0383091Y0313598D01*
X0382949Y0313528D01*
X0382808Y0313454D01*
X0382669Y0313377D01*
X0382533Y0313296D01*
X0382398Y0313211D01*
X0382265Y0313124D01*
X0382135Y0313033D01*
X0382007Y0312939D01*
X0381881Y0312842D01*
X0381758Y0312741D01*
X0381637Y0312638D01*
X0381519Y0312531D01*
X0381404Y0312422D01*
X0381291Y0312310D01*
X0381182Y0312195D01*
X0381075Y0312077D01*
X0380971Y0311957D01*
X0380870Y0311834D01*
X0380772Y0311709D01*
X0380677Y0311581D01*
X0380586Y0311451D01*
X0380498Y0311319D01*
X0380413Y0311185D01*
X0380332Y0311048D01*
X0380254Y0310910D01*
X0380179Y0310770D01*
X0380108Y0310627D01*
X0380041Y0310484D01*
X0379977Y0310338D01*
X0379916Y0310191D01*
X0379860Y0310042D01*
X0379807Y0309893D01*
X0379758Y0309741D01*
X0379713Y0309589D01*
X0379671Y0309436D01*
X0379634Y0309281D01*
X0379600Y0309126D01*
X0379570Y0308970D01*
X0379544Y0308813D01*
X0379522Y0308656D01*
X0379504Y0308498D01*
X0379490Y0308339D01*
X0379480Y0308181D01*
X0379473Y0308022D01*
X0379471Y0307863D01*
X0379473Y0307704D01*
X0379478Y0307545D01*
X0379488Y0307387D01*
X0379501Y0307228D01*
X0379519Y0307071D01*
X0379540Y0306913D01*
X0379566Y0306756D01*
X0379595Y0306600D01*
X0379595Y0174100D01*
X0379583Y0174007D01*
X0379567Y0173915D01*
X0379547Y0173824D01*
X0379523Y0173733D01*
X0379496Y0173644D01*
X0379465Y0173555D01*
X0379430Y0173468D01*
X0379392Y0173383D01*
X0379350Y0173299D01*
X0379305Y0173217D01*
X0379257Y0173137D01*
X0379205Y0173059D01*
X0379150Y0172983D01*
X0379092Y0172910D01*
X0379031Y0172839D01*
X0378967Y0172771D01*
X0378900Y0172705D01*
X0378831Y0172642D01*
X0378759Y0172582D01*
X0378685Y0172525D01*
X0378608Y0172471D01*
X0378530Y0172421D01*
X0378449Y0172373D01*
X0378366Y0172330D01*
X0378282Y0172289D01*
X0378196Y0172252D01*
X0378109Y0172219D01*
X0378020Y0172189D01*
X0377930Y0172163D01*
X0377839Y0172141D01*
X0377747Y0172122D01*
X0377655Y0172107D01*
X0377562Y0172096D01*
X0377469Y0172089D01*
X0377375Y0172086D01*
X0377282Y0172087D01*
X0377188Y0172091D01*
X0377095Y0172100D01*
X0366095Y0172100D01*
X0365992Y0172088D01*
X0365890Y0172073D01*
X0365789Y0172054D01*
X0365688Y0172032D01*
X0365588Y0172005D01*
X0365489Y0171975D01*
X0365392Y0171941D01*
X0365296Y0171904D01*
X0365201Y0171863D01*
X0365108Y0171818D01*
X0365016Y0171770D01*
X0364927Y0171719D01*
X0364839Y0171664D01*
X0364754Y0171606D01*
X0364670Y0171545D01*
X0364590Y0171481D01*
X0364511Y0171414D01*
X0364435Y0171344D01*
X0364362Y0171271D01*
X0364292Y0171196D01*
X0364224Y0171118D01*
X0364159Y0171037D01*
X0364098Y0170954D01*
X0364039Y0170869D01*
X0363984Y0170782D01*
X0363932Y0170692D01*
X0363884Y0170601D01*
X0363839Y0170508D01*
X0363797Y0170414D01*
X0363759Y0170318D01*
X0363725Y0170220D01*
X0363694Y0170122D01*
X0363667Y0170022D01*
X0363644Y0169922D01*
X0363624Y0169820D01*
X0363609Y0169718D01*
X0363597Y0169616D01*
X0363589Y0169513D01*
X0363585Y0169409D01*
X0363584Y0169306D01*
X0363588Y0169203D01*
X0363595Y0169100D01*
X0363595Y0104100D01*
X0363597Y0104002D01*
X0363603Y0103904D01*
X0363612Y0103806D01*
X0363626Y0103709D01*
X0363643Y0103612D01*
X0363664Y0103516D01*
X0363689Y0103421D01*
X0363717Y0103327D01*
X0363750Y0103235D01*
X0363785Y0103143D01*
X0363825Y0103053D01*
X0363867Y0102965D01*
X0363914Y0102878D01*
X0363963Y0102794D01*
X0364016Y0102711D01*
X0364072Y0102631D01*
X0364132Y0102552D01*
X0364194Y0102476D01*
X0364259Y0102403D01*
X0364327Y0102332D01*
X0364398Y0102264D01*
X0364471Y0102199D01*
X0364547Y0102137D01*
X0364626Y0102077D01*
X0364706Y0102021D01*
X0364789Y0101968D01*
X0364873Y0101919D01*
X0364960Y0101872D01*
X0365048Y0101830D01*
X0365138Y0101790D01*
X0365230Y0101755D01*
X0365322Y0101722D01*
X0365416Y0101694D01*
X0365511Y0101669D01*
X0365607Y0101648D01*
X0365704Y0101631D01*
X0365801Y0101617D01*
X0365899Y0101608D01*
X0365997Y0101602D01*
X0366095Y0101600D01*
X0444595Y0101600D01*
X0444776Y0101598D01*
X0444957Y0101591D01*
X0445138Y0101580D01*
X0445319Y0101565D01*
X0445499Y0101545D01*
X0445679Y0101521D01*
X0445858Y0101493D01*
X0446036Y0101460D01*
X0446213Y0101423D01*
X0446390Y0101382D01*
X0446565Y0101337D01*
X0446740Y0101287D01*
X0446913Y0101233D01*
X0447084Y0101175D01*
X0447255Y0101113D01*
X0447423Y0101046D01*
X0447590Y0100976D01*
X0447756Y0100902D01*
X0447919Y0100823D01*
X0448080Y0100741D01*
X0448240Y0100655D01*
X0448397Y0100565D01*
X0448552Y0100471D01*
X0448705Y0100374D01*
X0448855Y0100272D01*
X0449003Y0100168D01*
X0449149Y0100059D01*
X0449291Y0099948D01*
X0449431Y0099832D01*
X0449568Y0099714D01*
X0449703Y0099592D01*
X0449834Y0099467D01*
X0449962Y0099339D01*
X0450087Y0099208D01*
X0450209Y0099073D01*
X0450327Y0098936D01*
X0450443Y0098796D01*
X0450554Y0098654D01*
X0450663Y0098508D01*
X0450767Y0098360D01*
X0450869Y0098210D01*
X0450966Y0098057D01*
X0451060Y0097902D01*
X0451150Y0097745D01*
X0451236Y0097585D01*
X0451318Y0097424D01*
X0451397Y0097261D01*
X0451471Y0097095D01*
X0451541Y0096928D01*
X0451608Y0096760D01*
X0451670Y0096589D01*
X0451728Y0096418D01*
X0451782Y0096245D01*
X0451832Y0096070D01*
X0451877Y0095895D01*
X0451918Y0095718D01*
X0451955Y0095541D01*
X0451988Y0095363D01*
X0452016Y0095184D01*
X0452040Y0095004D01*
X0452060Y0094824D01*
X0452075Y0094643D01*
X0452086Y0094462D01*
X0452093Y0094281D01*
X0452095Y0094100D01*
X0452095Y0044100D01*
X0452111Y0043900D01*
X0452122Y0043701D01*
X0452128Y0043500D01*
X0452129Y0043300D01*
X0452125Y0043100D01*
X0452117Y0042900D01*
X0452103Y0042700D01*
X0452085Y0042501D01*
X0452062Y0042302D01*
X0452035Y0042104D01*
X0452002Y0041906D01*
X0451965Y0041710D01*
X0451923Y0041514D01*
X0451876Y0041319D01*
X0451825Y0041126D01*
X0451769Y0040934D01*
X0451708Y0040743D01*
X0451643Y0040554D01*
X0451573Y0040366D01*
X0451499Y0040180D01*
X0451420Y0039996D01*
X0451336Y0039814D01*
X0451249Y0039634D01*
X0451157Y0039456D01*
X0451061Y0039281D01*
X0450960Y0039108D01*
X0450856Y0038937D01*
X0450747Y0038769D01*
X0450634Y0038603D01*
X0450518Y0038441D01*
X0450397Y0038281D01*
X0450273Y0038124D01*
X0450144Y0037970D01*
X0450013Y0037820D01*
X0449877Y0037672D01*
X0449738Y0037528D01*
X0449596Y0037387D01*
X0449450Y0037250D01*
X0449301Y0037116D01*
X0449149Y0036986D01*
X0448993Y0036860D01*
X0448835Y0036738D01*
X0448674Y0036619D01*
X0448510Y0036504D01*
X0448343Y0036394D01*
X0448174Y0036287D01*
X0448002Y0036184D01*
X0447827Y0036086D01*
X0447651Y0035992D01*
X0447472Y0035902D01*
X0447291Y0035817D01*
X0447108Y0035736D01*
X0446923Y0035659D01*
X0446736Y0035587D01*
X0446548Y0035519D01*
X0446358Y0035456D01*
X0446166Y0035398D01*
X0445973Y0035344D01*
X0445779Y0035295D01*
X0445584Y0035251D01*
X0445388Y0035211D01*
X0445191Y0035176D01*
X0444993Y0035146D01*
X0444794Y0035121D01*
X0444595Y0035100D01*
X0444095Y0035100D01*
X0444098Y0034840D01*
X0444095Y0034580D01*
X0444085Y0034321D01*
X0444069Y0034061D01*
X0444047Y0033802D01*
X0444018Y0033544D01*
X0443984Y0033287D01*
X0443943Y0033030D01*
X0443896Y0032774D01*
X0443843Y0032520D01*
X0443783Y0032267D01*
X0443718Y0032016D01*
X0443646Y0031766D01*
X0443569Y0031518D01*
X0443485Y0031272D01*
X0443396Y0031028D01*
X0443300Y0030786D01*
X0443199Y0030547D01*
X0443092Y0030310D01*
X0442980Y0030076D01*
X0442862Y0029844D01*
X0442738Y0029616D01*
X0442609Y0029390D01*
X0442474Y0029168D01*
X0442334Y0028949D01*
X0442189Y0028734D01*
X0442039Y0028522D01*
X0441883Y0028313D01*
X0441723Y0028109D01*
X0441557Y0027908D01*
X0441387Y0027712D01*
X0441212Y0027520D01*
X0441033Y0027332D01*
X0440849Y0027148D01*
X0440661Y0026969D01*
X0440468Y0026795D01*
X0440271Y0026625D01*
X0440071Y0026460D01*
X0439866Y0026300D01*
X0439657Y0026145D01*
X0439445Y0025995D01*
X0439230Y0025850D01*
X0439010Y0025710D01*
X0438788Y0025576D01*
X0438562Y0025447D01*
X0438333Y0025324D01*
X0438102Y0025206D01*
X0437867Y0025094D01*
X0437630Y0024988D01*
X0437391Y0024887D01*
X0437149Y0024792D01*
X0436905Y0024703D01*
X0436659Y0024620D01*
X0436410Y0024543D01*
X0436160Y0024472D01*
X0435909Y0024407D01*
X0435656Y0024348D01*
X0435401Y0024295D01*
X0435146Y0024249D01*
X0434889Y0024208D01*
X0434631Y0024174D01*
X0434373Y0024146D01*
X0434114Y0024125D01*
X0433855Y0024109D01*
X0433595Y0024100D01*
X0433585Y0023792D01*
X0433568Y0023484D01*
X0433543Y0023177D01*
X0433511Y0022871D01*
X0433471Y0022565D01*
X0433425Y0022260D01*
X0433370Y0021957D01*
X0433309Y0021655D01*
X0433240Y0021355D01*
X0433164Y0021056D01*
X0433081Y0020759D01*
X0432991Y0020465D01*
X0432893Y0020172D01*
X0432789Y0019883D01*
X0432677Y0019595D01*
X0432559Y0019311D01*
X0432434Y0019029D01*
X0432302Y0018751D01*
X0432163Y0018475D01*
X0432018Y0018204D01*
X0431866Y0017935D01*
X0431708Y0017671D01*
X0431543Y0017410D01*
X0431373Y0017154D01*
X0431196Y0016902D01*
X0431013Y0016654D01*
X0430824Y0016410D01*
X0430629Y0016172D01*
X0430428Y0015937D01*
X0430222Y0015708D01*
X0430011Y0015484D01*
X0429794Y0015265D01*
X0429572Y0015052D01*
X0429345Y0014844D01*
X0429112Y0014641D01*
X0428875Y0014444D01*
X0428634Y0014253D01*
X0428387Y0014068D01*
X0428137Y0013888D01*
X0427882Y0013715D01*
X0427623Y0013548D01*
X0427360Y0013388D01*
X0427093Y0013234D01*
X0426823Y0013086D01*
X0426549Y0012945D01*
X0426271Y0012810D01*
X0425991Y0012682D01*
X0425708Y0012561D01*
X0425421Y0012447D01*
X0425132Y0012340D01*
X0424841Y0012240D01*
X0424547Y0012147D01*
X0424251Y0012061D01*
X0423953Y0011983D01*
X0423653Y0011911D01*
X0423352Y0011847D01*
X0423049Y0011790D01*
X0422745Y0011740D01*
X0422440Y0011698D01*
X0422134Y0011663D01*
X0421827Y0011636D01*
X0421519Y0011616D01*
X0421211Y0011603D01*
X0420903Y0011598D01*
X0420595Y0011600D01*
X0092095Y0011600D01*
X0091811Y0011621D01*
X0091528Y0011650D01*
X0091246Y0011685D01*
X0090964Y0011727D01*
X0090684Y0011776D01*
X0090405Y0011832D01*
X0090127Y0011894D01*
X0089851Y0011963D01*
X0089577Y0012039D01*
X0089305Y0012121D01*
X0089035Y0012210D01*
X0088766Y0012305D01*
X0088501Y0012407D01*
X0088238Y0012515D01*
X0087977Y0012629D01*
X0087719Y0012750D01*
X0087465Y0012877D01*
X0087213Y0013010D01*
X0086965Y0013149D01*
X0086720Y0013294D01*
X0086479Y0013445D01*
X0086242Y0013602D01*
X0086008Y0013764D01*
X0085778Y0013932D01*
X0085553Y0014106D01*
X0085332Y0014285D01*
X0085115Y0014469D01*
X0084903Y0014658D01*
X0084695Y0014853D01*
X0084492Y0015052D01*
X0084294Y0015257D01*
X0084101Y0015466D01*
X0083913Y0015679D01*
X0083730Y0015897D01*
X0083553Y0016120D01*
X0083381Y0016346D01*
X0083214Y0016577D01*
X0083053Y0016812D01*
X0082898Y0017050D01*
X0082749Y0017292D01*
X0082605Y0017538D01*
X0082468Y0017787D01*
X0082337Y0018040D01*
X0082211Y0018295D01*
X0082092Y0018554D01*
X0081980Y0018815D01*
X0081873Y0019079D01*
X0081773Y0019345D01*
X0081680Y0019614D01*
X0081593Y0019885D01*
X0081512Y0020158D01*
X0081438Y0020432D01*
X0081371Y0020709D01*
X0081311Y0020987D01*
X0081257Y0021266D01*
X0081210Y0021547D01*
X0081170Y0021829D01*
X0081136Y0022111D01*
X0081110Y0022394D01*
X0081090Y0022678D01*
X0081077Y0022962D01*
X0081071Y0023247D01*
X0081072Y0023531D01*
X0081080Y0023816D01*
X0081095Y0024100D01*
X0080829Y0024103D01*
X0080564Y0024113D01*
X0080298Y0024129D01*
X0080033Y0024151D01*
X0079769Y0024180D01*
X0079506Y0024215D01*
X0079243Y0024257D01*
X0078982Y0024305D01*
X0078721Y0024359D01*
X0078463Y0024420D01*
X0078205Y0024486D01*
X0077950Y0024559D01*
X0077696Y0024638D01*
X0077444Y0024724D01*
X0077194Y0024815D01*
X0076947Y0024912D01*
X0076702Y0025015D01*
X0076460Y0025124D01*
X0076220Y0025239D01*
X0075983Y0025360D01*
X0075749Y0025486D01*
X0075518Y0025618D01*
X0075291Y0025756D01*
X0075067Y0025899D01*
X0074846Y0026047D01*
X0074629Y0026201D01*
X0074416Y0026360D01*
X0074207Y0026524D01*
X0074002Y0026693D01*
X0073801Y0026866D01*
X0073604Y0027045D01*
X0073411Y0027228D01*
X0073223Y0027416D01*
X0073040Y0027609D01*
X0072861Y0027806D01*
X0072688Y0028007D01*
X0072519Y0028212D01*
X0072355Y0028421D01*
X0072196Y0028634D01*
X0072042Y0028851D01*
X0071894Y0029072D01*
X0071751Y0029296D01*
X0071613Y0029523D01*
X0071481Y0029754D01*
X0071355Y0029988D01*
X0071234Y0030225D01*
X0071119Y0030465D01*
X0071010Y0030707D01*
X0070907Y0030952D01*
X0070810Y0031199D01*
X0070719Y0031449D01*
X0070633Y0031701D01*
X0070554Y0031955D01*
X0070481Y0032210D01*
X0070415Y0032468D01*
X0070354Y0032726D01*
X0070300Y0032987D01*
X0070252Y0033248D01*
X0070210Y0033511D01*
X0070175Y0033774D01*
X0070146Y0034038D01*
X0070124Y0034303D01*
X0070108Y0034569D01*
X0070098Y0034834D01*
X0070095Y0035100D01*
X0069595Y0035100D01*
X0069414Y0035102D01*
X0069233Y0035109D01*
X0069052Y0035120D01*
X0068871Y0035135D01*
X0068691Y0035155D01*
X0068511Y0035179D01*
X0068332Y0035207D01*
X0068154Y0035240D01*
X0067977Y0035277D01*
X0067800Y0035318D01*
X0067625Y0035363D01*
X0067450Y0035413D01*
X0067277Y0035467D01*
X0067106Y0035525D01*
X0066935Y0035587D01*
X0066767Y0035654D01*
X0066600Y0035724D01*
X0066434Y0035798D01*
X0066271Y0035877D01*
X0066110Y0035959D01*
X0065950Y0036045D01*
X0065793Y0036135D01*
X0065638Y0036229D01*
X0065485Y0036326D01*
X0065335Y0036428D01*
X0065187Y0036532D01*
X0065041Y0036641D01*
X0064899Y0036752D01*
X0064759Y0036868D01*
X0064622Y0036986D01*
X0064487Y0037108D01*
X0064356Y0037233D01*
X0064228Y0037361D01*
X0064103Y0037492D01*
X0063981Y0037627D01*
X0063863Y0037764D01*
X0063747Y0037904D01*
X0063636Y0038046D01*
X0063527Y0038192D01*
X0063423Y0038340D01*
X0063321Y0038490D01*
X0063224Y0038643D01*
X0063130Y0038798D01*
X0063040Y0038955D01*
X0062954Y0039115D01*
X0062872Y0039276D01*
X0062793Y0039439D01*
X0062719Y0039605D01*
X0062649Y0039772D01*
X0062582Y0039940D01*
X0062520Y0040111D01*
X0062462Y0040282D01*
X0062408Y0040455D01*
X0062358Y0040630D01*
X0062313Y0040805D01*
X0062272Y0040982D01*
X0062235Y0041159D01*
X0062202Y0041337D01*
X0062174Y0041516D01*
X0062150Y0041696D01*
X0062130Y0041876D01*
X0062115Y0042057D01*
X0062104Y0042238D01*
X0062097Y0042419D01*
X0062095Y0042600D01*
X0192595Y0344100D02*
X0212595Y0344100D01*
X0212735Y0344102D01*
X0212875Y0344108D01*
X0213015Y0344118D01*
X0213155Y0344131D01*
X0213294Y0344149D01*
X0213433Y0344171D01*
X0213570Y0344196D01*
X0213708Y0344225D01*
X0213844Y0344258D01*
X0213979Y0344295D01*
X0214113Y0344336D01*
X0214246Y0344381D01*
X0214378Y0344429D01*
X0214508Y0344481D01*
X0214637Y0344536D01*
X0214764Y0344595D01*
X0214890Y0344658D01*
X0215014Y0344724D01*
X0215135Y0344793D01*
X0215255Y0344866D01*
X0215373Y0344943D01*
X0215488Y0345022D01*
X0215602Y0345105D01*
X0215712Y0345191D01*
X0215821Y0345280D01*
X0215927Y0345372D01*
X0216030Y0345467D01*
X0216131Y0345564D01*
X0216228Y0345665D01*
X0216323Y0345768D01*
X0216415Y0345874D01*
X0216504Y0345983D01*
X0216590Y0346093D01*
X0216673Y0346207D01*
X0216752Y0346322D01*
X0216829Y0346440D01*
X0216902Y0346560D01*
X0216971Y0346681D01*
X0217037Y0346805D01*
X0217100Y0346931D01*
X0217159Y0347058D01*
X0217214Y0347187D01*
X0217266Y0347317D01*
X0217314Y0347449D01*
X0217359Y0347582D01*
X0217400Y0347716D01*
X0217437Y0347851D01*
X0217470Y0347987D01*
X0217499Y0348125D01*
X0217524Y0348262D01*
X0217546Y0348401D01*
X0217564Y0348540D01*
X0217577Y0348680D01*
X0217587Y0348820D01*
X0217593Y0348960D01*
X0217595Y0349100D01*
X0217595Y0369100D01*
X0217593Y0369240D01*
X0217587Y0369380D01*
X0217577Y0369520D01*
X0217564Y0369660D01*
X0217546Y0369799D01*
X0217524Y0369938D01*
X0217499Y0370075D01*
X0217470Y0370213D01*
X0217437Y0370349D01*
X0217400Y0370484D01*
X0217359Y0370618D01*
X0217314Y0370751D01*
X0217266Y0370883D01*
X0217214Y0371013D01*
X0217159Y0371142D01*
X0217100Y0371269D01*
X0217037Y0371395D01*
X0216971Y0371519D01*
X0216902Y0371640D01*
X0216829Y0371760D01*
X0216752Y0371878D01*
X0216673Y0371993D01*
X0216590Y0372107D01*
X0216504Y0372217D01*
X0216415Y0372326D01*
X0216323Y0372432D01*
X0216228Y0372535D01*
X0216131Y0372636D01*
X0216030Y0372733D01*
X0215927Y0372828D01*
X0215821Y0372920D01*
X0215712Y0373009D01*
X0215602Y0373095D01*
X0215488Y0373178D01*
X0215373Y0373257D01*
X0215255Y0373334D01*
X0215135Y0373407D01*
X0215014Y0373476D01*
X0214890Y0373542D01*
X0214764Y0373605D01*
X0214637Y0373664D01*
X0214508Y0373719D01*
X0214378Y0373771D01*
X0214246Y0373819D01*
X0214113Y0373864D01*
X0213979Y0373905D01*
X0213844Y0373942D01*
X0213708Y0373975D01*
X0213570Y0374004D01*
X0213433Y0374029D01*
X0213294Y0374051D01*
X0213155Y0374069D01*
X0213015Y0374082D01*
X0212875Y0374092D01*
X0212735Y0374098D01*
X0212595Y0374100D01*
X0192595Y0374100D01*
X0192455Y0374098D01*
X0192315Y0374092D01*
X0192175Y0374082D01*
X0192035Y0374069D01*
X0191896Y0374051D01*
X0191757Y0374029D01*
X0191620Y0374004D01*
X0191482Y0373975D01*
X0191346Y0373942D01*
X0191211Y0373905D01*
X0191077Y0373864D01*
X0190944Y0373819D01*
X0190812Y0373771D01*
X0190682Y0373719D01*
X0190553Y0373664D01*
X0190426Y0373605D01*
X0190300Y0373542D01*
X0190176Y0373476D01*
X0190055Y0373407D01*
X0189935Y0373334D01*
X0189817Y0373257D01*
X0189702Y0373178D01*
X0189588Y0373095D01*
X0189478Y0373009D01*
X0189369Y0372920D01*
X0189263Y0372828D01*
X0189160Y0372733D01*
X0189059Y0372636D01*
X0188962Y0372535D01*
X0188867Y0372432D01*
X0188775Y0372326D01*
X0188686Y0372217D01*
X0188600Y0372107D01*
X0188517Y0371993D01*
X0188438Y0371878D01*
X0188361Y0371760D01*
X0188288Y0371640D01*
X0188219Y0371519D01*
X0188153Y0371395D01*
X0188090Y0371269D01*
X0188031Y0371142D01*
X0187976Y0371013D01*
X0187924Y0370883D01*
X0187876Y0370751D01*
X0187831Y0370618D01*
X0187790Y0370484D01*
X0187753Y0370349D01*
X0187720Y0370213D01*
X0187691Y0370075D01*
X0187666Y0369938D01*
X0187644Y0369799D01*
X0187626Y0369660D01*
X0187613Y0369520D01*
X0187603Y0369380D01*
X0187597Y0369240D01*
X0187595Y0369100D01*
X0187595Y0349100D01*
X0187597Y0348960D01*
X0187603Y0348820D01*
X0187613Y0348680D01*
X0187626Y0348540D01*
X0187644Y0348401D01*
X0187666Y0348262D01*
X0187691Y0348125D01*
X0187720Y0347987D01*
X0187753Y0347851D01*
X0187790Y0347716D01*
X0187831Y0347582D01*
X0187876Y0347449D01*
X0187924Y0347317D01*
X0187976Y0347187D01*
X0188031Y0347058D01*
X0188090Y0346931D01*
X0188153Y0346805D01*
X0188219Y0346681D01*
X0188288Y0346560D01*
X0188361Y0346440D01*
X0188438Y0346322D01*
X0188517Y0346207D01*
X0188600Y0346093D01*
X0188686Y0345983D01*
X0188775Y0345874D01*
X0188867Y0345768D01*
X0188962Y0345665D01*
X0189059Y0345564D01*
X0189160Y0345467D01*
X0189263Y0345372D01*
X0189369Y0345280D01*
X0189478Y0345191D01*
X0189588Y0345105D01*
X0189702Y0345022D01*
X0189817Y0344943D01*
X0189935Y0344866D01*
X0190055Y0344793D01*
X0190176Y0344724D01*
X0190300Y0344658D01*
X0190426Y0344595D01*
X0190553Y0344536D01*
X0190682Y0344481D01*
X0190812Y0344429D01*
X0190944Y0344381D01*
X0191077Y0344336D01*
X0191211Y0344295D01*
X0191346Y0344258D01*
X0191482Y0344225D01*
X0191620Y0344196D01*
X0191757Y0344171D01*
X0191896Y0344149D01*
X0192035Y0344131D01*
X0192175Y0344118D01*
X0192315Y0344108D01*
X0192455Y0344102D01*
X0192595Y0344100D01*
D11*
X0221689Y0370350D02*
X0221691Y0370503D01*
X0221697Y0370657D01*
X0221707Y0370810D01*
X0221721Y0370962D01*
X0221739Y0371115D01*
X0221761Y0371266D01*
X0221786Y0371417D01*
X0221816Y0371568D01*
X0221850Y0371718D01*
X0221887Y0371866D01*
X0221928Y0372014D01*
X0221973Y0372160D01*
X0222022Y0372306D01*
X0222075Y0372450D01*
X0222131Y0372592D01*
X0222191Y0372733D01*
X0222255Y0372873D01*
X0222322Y0373011D01*
X0222393Y0373147D01*
X0222468Y0373281D01*
X0222545Y0373413D01*
X0222627Y0373543D01*
X0222711Y0373671D01*
X0222799Y0373797D01*
X0222890Y0373920D01*
X0222984Y0374041D01*
X0223082Y0374159D01*
X0223182Y0374275D01*
X0223286Y0374388D01*
X0223392Y0374499D01*
X0223501Y0374607D01*
X0223613Y0374712D01*
X0223727Y0374813D01*
X0223845Y0374912D01*
X0223964Y0375008D01*
X0224086Y0375101D01*
X0224211Y0375190D01*
X0224338Y0375277D01*
X0224467Y0375359D01*
X0224598Y0375439D01*
X0224731Y0375515D01*
X0224866Y0375588D01*
X0225003Y0375657D01*
X0225142Y0375722D01*
X0225282Y0375784D01*
X0225424Y0375842D01*
X0225567Y0375897D01*
X0225712Y0375948D01*
X0225858Y0375995D01*
X0226005Y0376038D01*
X0226153Y0376077D01*
X0226302Y0376113D01*
X0226452Y0376144D01*
X0226603Y0376172D01*
X0226754Y0376196D01*
X0226907Y0376216D01*
X0227059Y0376232D01*
X0227212Y0376244D01*
X0227365Y0376252D01*
X0227518Y0376256D01*
X0227672Y0376256D01*
X0227825Y0376252D01*
X0227978Y0376244D01*
X0228131Y0376232D01*
X0228283Y0376216D01*
X0228436Y0376196D01*
X0228587Y0376172D01*
X0228738Y0376144D01*
X0228888Y0376113D01*
X0229037Y0376077D01*
X0229185Y0376038D01*
X0229332Y0375995D01*
X0229478Y0375948D01*
X0229623Y0375897D01*
X0229766Y0375842D01*
X0229908Y0375784D01*
X0230048Y0375722D01*
X0230187Y0375657D01*
X0230324Y0375588D01*
X0230459Y0375515D01*
X0230592Y0375439D01*
X0230723Y0375359D01*
X0230852Y0375277D01*
X0230979Y0375190D01*
X0231104Y0375101D01*
X0231226Y0375008D01*
X0231345Y0374912D01*
X0231463Y0374813D01*
X0231577Y0374712D01*
X0231689Y0374607D01*
X0231798Y0374499D01*
X0231904Y0374388D01*
X0232008Y0374275D01*
X0232108Y0374159D01*
X0232206Y0374041D01*
X0232300Y0373920D01*
X0232391Y0373797D01*
X0232479Y0373671D01*
X0232563Y0373543D01*
X0232645Y0373413D01*
X0232722Y0373281D01*
X0232797Y0373147D01*
X0232868Y0373011D01*
X0232935Y0372873D01*
X0232999Y0372733D01*
X0233059Y0372592D01*
X0233115Y0372450D01*
X0233168Y0372306D01*
X0233217Y0372160D01*
X0233262Y0372014D01*
X0233303Y0371866D01*
X0233340Y0371718D01*
X0233374Y0371568D01*
X0233404Y0371417D01*
X0233429Y0371266D01*
X0233451Y0371115D01*
X0233469Y0370962D01*
X0233483Y0370810D01*
X0233493Y0370657D01*
X0233499Y0370503D01*
X0233501Y0370350D01*
X0233499Y0370197D01*
X0233493Y0370043D01*
X0233483Y0369890D01*
X0233469Y0369738D01*
X0233451Y0369585D01*
X0233429Y0369434D01*
X0233404Y0369283D01*
X0233374Y0369132D01*
X0233340Y0368982D01*
X0233303Y0368834D01*
X0233262Y0368686D01*
X0233217Y0368540D01*
X0233168Y0368394D01*
X0233115Y0368250D01*
X0233059Y0368108D01*
X0232999Y0367967D01*
X0232935Y0367827D01*
X0232868Y0367689D01*
X0232797Y0367553D01*
X0232722Y0367419D01*
X0232645Y0367287D01*
X0232563Y0367157D01*
X0232479Y0367029D01*
X0232391Y0366903D01*
X0232300Y0366780D01*
X0232206Y0366659D01*
X0232108Y0366541D01*
X0232008Y0366425D01*
X0231904Y0366312D01*
X0231798Y0366201D01*
X0231689Y0366093D01*
X0231577Y0365988D01*
X0231463Y0365887D01*
X0231345Y0365788D01*
X0231226Y0365692D01*
X0231104Y0365599D01*
X0230979Y0365510D01*
X0230852Y0365423D01*
X0230723Y0365341D01*
X0230592Y0365261D01*
X0230459Y0365185D01*
X0230324Y0365112D01*
X0230187Y0365043D01*
X0230048Y0364978D01*
X0229908Y0364916D01*
X0229766Y0364858D01*
X0229623Y0364803D01*
X0229478Y0364752D01*
X0229332Y0364705D01*
X0229185Y0364662D01*
X0229037Y0364623D01*
X0228888Y0364587D01*
X0228738Y0364556D01*
X0228587Y0364528D01*
X0228436Y0364504D01*
X0228283Y0364484D01*
X0228131Y0364468D01*
X0227978Y0364456D01*
X0227825Y0364448D01*
X0227672Y0364444D01*
X0227518Y0364444D01*
X0227365Y0364448D01*
X0227212Y0364456D01*
X0227059Y0364468D01*
X0226907Y0364484D01*
X0226754Y0364504D01*
X0226603Y0364528D01*
X0226452Y0364556D01*
X0226302Y0364587D01*
X0226153Y0364623D01*
X0226005Y0364662D01*
X0225858Y0364705D01*
X0225712Y0364752D01*
X0225567Y0364803D01*
X0225424Y0364858D01*
X0225282Y0364916D01*
X0225142Y0364978D01*
X0225003Y0365043D01*
X0224866Y0365112D01*
X0224731Y0365185D01*
X0224598Y0365261D01*
X0224467Y0365341D01*
X0224338Y0365423D01*
X0224211Y0365510D01*
X0224086Y0365599D01*
X0223964Y0365692D01*
X0223845Y0365788D01*
X0223727Y0365887D01*
X0223613Y0365988D01*
X0223501Y0366093D01*
X0223392Y0366201D01*
X0223286Y0366312D01*
X0223182Y0366425D01*
X0223082Y0366541D01*
X0222984Y0366659D01*
X0222890Y0366780D01*
X0222799Y0366903D01*
X0222711Y0367029D01*
X0222627Y0367157D01*
X0222545Y0367287D01*
X0222468Y0367419D01*
X0222393Y0367553D01*
X0222322Y0367689D01*
X0222255Y0367827D01*
X0222191Y0367967D01*
X0222131Y0368108D01*
X0222075Y0368250D01*
X0222022Y0368394D01*
X0221973Y0368540D01*
X0221928Y0368686D01*
X0221887Y0368834D01*
X0221850Y0368982D01*
X0221816Y0369132D01*
X0221786Y0369283D01*
X0221761Y0369434D01*
X0221739Y0369585D01*
X0221721Y0369738D01*
X0221707Y0369890D01*
X0221697Y0370043D01*
X0221691Y0370197D01*
X0221689Y0370350D01*
X0221689Y0390350D02*
X0221691Y0390503D01*
X0221697Y0390657D01*
X0221707Y0390810D01*
X0221721Y0390962D01*
X0221739Y0391115D01*
X0221761Y0391266D01*
X0221786Y0391417D01*
X0221816Y0391568D01*
X0221850Y0391718D01*
X0221887Y0391866D01*
X0221928Y0392014D01*
X0221973Y0392160D01*
X0222022Y0392306D01*
X0222075Y0392450D01*
X0222131Y0392592D01*
X0222191Y0392733D01*
X0222255Y0392873D01*
X0222322Y0393011D01*
X0222393Y0393147D01*
X0222468Y0393281D01*
X0222545Y0393413D01*
X0222627Y0393543D01*
X0222711Y0393671D01*
X0222799Y0393797D01*
X0222890Y0393920D01*
X0222984Y0394041D01*
X0223082Y0394159D01*
X0223182Y0394275D01*
X0223286Y0394388D01*
X0223392Y0394499D01*
X0223501Y0394607D01*
X0223613Y0394712D01*
X0223727Y0394813D01*
X0223845Y0394912D01*
X0223964Y0395008D01*
X0224086Y0395101D01*
X0224211Y0395190D01*
X0224338Y0395277D01*
X0224467Y0395359D01*
X0224598Y0395439D01*
X0224731Y0395515D01*
X0224866Y0395588D01*
X0225003Y0395657D01*
X0225142Y0395722D01*
X0225282Y0395784D01*
X0225424Y0395842D01*
X0225567Y0395897D01*
X0225712Y0395948D01*
X0225858Y0395995D01*
X0226005Y0396038D01*
X0226153Y0396077D01*
X0226302Y0396113D01*
X0226452Y0396144D01*
X0226603Y0396172D01*
X0226754Y0396196D01*
X0226907Y0396216D01*
X0227059Y0396232D01*
X0227212Y0396244D01*
X0227365Y0396252D01*
X0227518Y0396256D01*
X0227672Y0396256D01*
X0227825Y0396252D01*
X0227978Y0396244D01*
X0228131Y0396232D01*
X0228283Y0396216D01*
X0228436Y0396196D01*
X0228587Y0396172D01*
X0228738Y0396144D01*
X0228888Y0396113D01*
X0229037Y0396077D01*
X0229185Y0396038D01*
X0229332Y0395995D01*
X0229478Y0395948D01*
X0229623Y0395897D01*
X0229766Y0395842D01*
X0229908Y0395784D01*
X0230048Y0395722D01*
X0230187Y0395657D01*
X0230324Y0395588D01*
X0230459Y0395515D01*
X0230592Y0395439D01*
X0230723Y0395359D01*
X0230852Y0395277D01*
X0230979Y0395190D01*
X0231104Y0395101D01*
X0231226Y0395008D01*
X0231345Y0394912D01*
X0231463Y0394813D01*
X0231577Y0394712D01*
X0231689Y0394607D01*
X0231798Y0394499D01*
X0231904Y0394388D01*
X0232008Y0394275D01*
X0232108Y0394159D01*
X0232206Y0394041D01*
X0232300Y0393920D01*
X0232391Y0393797D01*
X0232479Y0393671D01*
X0232563Y0393543D01*
X0232645Y0393413D01*
X0232722Y0393281D01*
X0232797Y0393147D01*
X0232868Y0393011D01*
X0232935Y0392873D01*
X0232999Y0392733D01*
X0233059Y0392592D01*
X0233115Y0392450D01*
X0233168Y0392306D01*
X0233217Y0392160D01*
X0233262Y0392014D01*
X0233303Y0391866D01*
X0233340Y0391718D01*
X0233374Y0391568D01*
X0233404Y0391417D01*
X0233429Y0391266D01*
X0233451Y0391115D01*
X0233469Y0390962D01*
X0233483Y0390810D01*
X0233493Y0390657D01*
X0233499Y0390503D01*
X0233501Y0390350D01*
X0233499Y0390197D01*
X0233493Y0390043D01*
X0233483Y0389890D01*
X0233469Y0389738D01*
X0233451Y0389585D01*
X0233429Y0389434D01*
X0233404Y0389283D01*
X0233374Y0389132D01*
X0233340Y0388982D01*
X0233303Y0388834D01*
X0233262Y0388686D01*
X0233217Y0388540D01*
X0233168Y0388394D01*
X0233115Y0388250D01*
X0233059Y0388108D01*
X0232999Y0387967D01*
X0232935Y0387827D01*
X0232868Y0387689D01*
X0232797Y0387553D01*
X0232722Y0387419D01*
X0232645Y0387287D01*
X0232563Y0387157D01*
X0232479Y0387029D01*
X0232391Y0386903D01*
X0232300Y0386780D01*
X0232206Y0386659D01*
X0232108Y0386541D01*
X0232008Y0386425D01*
X0231904Y0386312D01*
X0231798Y0386201D01*
X0231689Y0386093D01*
X0231577Y0385988D01*
X0231463Y0385887D01*
X0231345Y0385788D01*
X0231226Y0385692D01*
X0231104Y0385599D01*
X0230979Y0385510D01*
X0230852Y0385423D01*
X0230723Y0385341D01*
X0230592Y0385261D01*
X0230459Y0385185D01*
X0230324Y0385112D01*
X0230187Y0385043D01*
X0230048Y0384978D01*
X0229908Y0384916D01*
X0229766Y0384858D01*
X0229623Y0384803D01*
X0229478Y0384752D01*
X0229332Y0384705D01*
X0229185Y0384662D01*
X0229037Y0384623D01*
X0228888Y0384587D01*
X0228738Y0384556D01*
X0228587Y0384528D01*
X0228436Y0384504D01*
X0228283Y0384484D01*
X0228131Y0384468D01*
X0227978Y0384456D01*
X0227825Y0384448D01*
X0227672Y0384444D01*
X0227518Y0384444D01*
X0227365Y0384448D01*
X0227212Y0384456D01*
X0227059Y0384468D01*
X0226907Y0384484D01*
X0226754Y0384504D01*
X0226603Y0384528D01*
X0226452Y0384556D01*
X0226302Y0384587D01*
X0226153Y0384623D01*
X0226005Y0384662D01*
X0225858Y0384705D01*
X0225712Y0384752D01*
X0225567Y0384803D01*
X0225424Y0384858D01*
X0225282Y0384916D01*
X0225142Y0384978D01*
X0225003Y0385043D01*
X0224866Y0385112D01*
X0224731Y0385185D01*
X0224598Y0385261D01*
X0224467Y0385341D01*
X0224338Y0385423D01*
X0224211Y0385510D01*
X0224086Y0385599D01*
X0223964Y0385692D01*
X0223845Y0385788D01*
X0223727Y0385887D01*
X0223613Y0385988D01*
X0223501Y0386093D01*
X0223392Y0386201D01*
X0223286Y0386312D01*
X0223182Y0386425D01*
X0223082Y0386541D01*
X0222984Y0386659D01*
X0222890Y0386780D01*
X0222799Y0386903D01*
X0222711Y0387029D01*
X0222627Y0387157D01*
X0222545Y0387287D01*
X0222468Y0387419D01*
X0222393Y0387553D01*
X0222322Y0387689D01*
X0222255Y0387827D01*
X0222191Y0387967D01*
X0222131Y0388108D01*
X0222075Y0388250D01*
X0222022Y0388394D01*
X0221973Y0388540D01*
X0221928Y0388686D01*
X0221887Y0388834D01*
X0221850Y0388982D01*
X0221816Y0389132D01*
X0221786Y0389283D01*
X0221761Y0389434D01*
X0221739Y0389585D01*
X0221721Y0389738D01*
X0221707Y0389890D01*
X0221697Y0390043D01*
X0221691Y0390197D01*
X0221689Y0390350D01*
X0250595Y0389600D02*
X0250597Y0389761D01*
X0250603Y0389921D01*
X0250613Y0390082D01*
X0250627Y0390242D01*
X0250645Y0390402D01*
X0250666Y0390561D01*
X0250692Y0390720D01*
X0250722Y0390878D01*
X0250755Y0391035D01*
X0250793Y0391192D01*
X0250834Y0391347D01*
X0250879Y0391501D01*
X0250928Y0391654D01*
X0250981Y0391806D01*
X0251037Y0391957D01*
X0251098Y0392106D01*
X0251161Y0392254D01*
X0251229Y0392400D01*
X0251300Y0392544D01*
X0251374Y0392686D01*
X0251452Y0392827D01*
X0251534Y0392965D01*
X0251619Y0393102D01*
X0251707Y0393236D01*
X0251799Y0393368D01*
X0251894Y0393498D01*
X0251992Y0393626D01*
X0252093Y0393751D01*
X0252197Y0393873D01*
X0252304Y0393993D01*
X0252414Y0394110D01*
X0252527Y0394225D01*
X0252643Y0394336D01*
X0252762Y0394445D01*
X0252883Y0394550D01*
X0253007Y0394653D01*
X0253133Y0394753D01*
X0253261Y0394849D01*
X0253392Y0394942D01*
X0253526Y0395032D01*
X0253661Y0395119D01*
X0253799Y0395202D01*
X0253938Y0395282D01*
X0254080Y0395358D01*
X0254223Y0395431D01*
X0254368Y0395500D01*
X0254515Y0395566D01*
X0254663Y0395628D01*
X0254813Y0395686D01*
X0254964Y0395741D01*
X0255117Y0395792D01*
X0255271Y0395839D01*
X0255426Y0395882D01*
X0255582Y0395921D01*
X0255738Y0395957D01*
X0255896Y0395988D01*
X0256054Y0396016D01*
X0256213Y0396040D01*
X0256373Y0396060D01*
X0256533Y0396076D01*
X0256693Y0396088D01*
X0256854Y0396096D01*
X0257015Y0396100D01*
X0257175Y0396100D01*
X0257336Y0396096D01*
X0257497Y0396088D01*
X0257657Y0396076D01*
X0257817Y0396060D01*
X0257977Y0396040D01*
X0258136Y0396016D01*
X0258294Y0395988D01*
X0258452Y0395957D01*
X0258608Y0395921D01*
X0258764Y0395882D01*
X0258919Y0395839D01*
X0259073Y0395792D01*
X0259226Y0395741D01*
X0259377Y0395686D01*
X0259527Y0395628D01*
X0259675Y0395566D01*
X0259822Y0395500D01*
X0259967Y0395431D01*
X0260110Y0395358D01*
X0260252Y0395282D01*
X0260391Y0395202D01*
X0260529Y0395119D01*
X0260664Y0395032D01*
X0260798Y0394942D01*
X0260929Y0394849D01*
X0261057Y0394753D01*
X0261183Y0394653D01*
X0261307Y0394550D01*
X0261428Y0394445D01*
X0261547Y0394336D01*
X0261663Y0394225D01*
X0261776Y0394110D01*
X0261886Y0393993D01*
X0261993Y0393873D01*
X0262097Y0393751D01*
X0262198Y0393626D01*
X0262296Y0393498D01*
X0262391Y0393368D01*
X0262483Y0393236D01*
X0262571Y0393102D01*
X0262656Y0392965D01*
X0262738Y0392827D01*
X0262816Y0392686D01*
X0262890Y0392544D01*
X0262961Y0392400D01*
X0263029Y0392254D01*
X0263092Y0392106D01*
X0263153Y0391957D01*
X0263209Y0391806D01*
X0263262Y0391654D01*
X0263311Y0391501D01*
X0263356Y0391347D01*
X0263397Y0391192D01*
X0263435Y0391035D01*
X0263468Y0390878D01*
X0263498Y0390720D01*
X0263524Y0390561D01*
X0263545Y0390402D01*
X0263563Y0390242D01*
X0263577Y0390082D01*
X0263587Y0389921D01*
X0263593Y0389761D01*
X0263595Y0389600D01*
X0263593Y0389439D01*
X0263587Y0389279D01*
X0263577Y0389118D01*
X0263563Y0388958D01*
X0263545Y0388798D01*
X0263524Y0388639D01*
X0263498Y0388480D01*
X0263468Y0388322D01*
X0263435Y0388165D01*
X0263397Y0388008D01*
X0263356Y0387853D01*
X0263311Y0387699D01*
X0263262Y0387546D01*
X0263209Y0387394D01*
X0263153Y0387243D01*
X0263092Y0387094D01*
X0263029Y0386946D01*
X0262961Y0386800D01*
X0262890Y0386656D01*
X0262816Y0386514D01*
X0262738Y0386373D01*
X0262656Y0386235D01*
X0262571Y0386098D01*
X0262483Y0385964D01*
X0262391Y0385832D01*
X0262296Y0385702D01*
X0262198Y0385574D01*
X0262097Y0385449D01*
X0261993Y0385327D01*
X0261886Y0385207D01*
X0261776Y0385090D01*
X0261663Y0384975D01*
X0261547Y0384864D01*
X0261428Y0384755D01*
X0261307Y0384650D01*
X0261183Y0384547D01*
X0261057Y0384447D01*
X0260929Y0384351D01*
X0260798Y0384258D01*
X0260664Y0384168D01*
X0260529Y0384081D01*
X0260391Y0383998D01*
X0260252Y0383918D01*
X0260110Y0383842D01*
X0259967Y0383769D01*
X0259822Y0383700D01*
X0259675Y0383634D01*
X0259527Y0383572D01*
X0259377Y0383514D01*
X0259226Y0383459D01*
X0259073Y0383408D01*
X0258919Y0383361D01*
X0258764Y0383318D01*
X0258608Y0383279D01*
X0258452Y0383243D01*
X0258294Y0383212D01*
X0258136Y0383184D01*
X0257977Y0383160D01*
X0257817Y0383140D01*
X0257657Y0383124D01*
X0257497Y0383112D01*
X0257336Y0383104D01*
X0257175Y0383100D01*
X0257015Y0383100D01*
X0256854Y0383104D01*
X0256693Y0383112D01*
X0256533Y0383124D01*
X0256373Y0383140D01*
X0256213Y0383160D01*
X0256054Y0383184D01*
X0255896Y0383212D01*
X0255738Y0383243D01*
X0255582Y0383279D01*
X0255426Y0383318D01*
X0255271Y0383361D01*
X0255117Y0383408D01*
X0254964Y0383459D01*
X0254813Y0383514D01*
X0254663Y0383572D01*
X0254515Y0383634D01*
X0254368Y0383700D01*
X0254223Y0383769D01*
X0254080Y0383842D01*
X0253938Y0383918D01*
X0253799Y0383998D01*
X0253661Y0384081D01*
X0253526Y0384168D01*
X0253392Y0384258D01*
X0253261Y0384351D01*
X0253133Y0384447D01*
X0253007Y0384547D01*
X0252883Y0384650D01*
X0252762Y0384755D01*
X0252643Y0384864D01*
X0252527Y0384975D01*
X0252414Y0385090D01*
X0252304Y0385207D01*
X0252197Y0385327D01*
X0252093Y0385449D01*
X0251992Y0385574D01*
X0251894Y0385702D01*
X0251799Y0385832D01*
X0251707Y0385964D01*
X0251619Y0386098D01*
X0251534Y0386235D01*
X0251452Y0386373D01*
X0251374Y0386514D01*
X0251300Y0386656D01*
X0251229Y0386800D01*
X0251161Y0386946D01*
X0251098Y0387094D01*
X0251037Y0387243D01*
X0250981Y0387394D01*
X0250928Y0387546D01*
X0250879Y0387699D01*
X0250834Y0387853D01*
X0250793Y0388008D01*
X0250755Y0388165D01*
X0250722Y0388322D01*
X0250692Y0388480D01*
X0250666Y0388639D01*
X0250645Y0388798D01*
X0250627Y0388958D01*
X0250613Y0389118D01*
X0250603Y0389279D01*
X0250597Y0389439D01*
X0250595Y0389600D01*
X0248237Y0344600D02*
X0248240Y0344817D01*
X0248248Y0345035D01*
X0248261Y0345252D01*
X0248280Y0345468D01*
X0248304Y0345684D01*
X0248333Y0345900D01*
X0248367Y0346114D01*
X0248407Y0346328D01*
X0248452Y0346541D01*
X0248502Y0346752D01*
X0248558Y0346963D01*
X0248618Y0347171D01*
X0248684Y0347379D01*
X0248755Y0347584D01*
X0248831Y0347788D01*
X0248911Y0347990D01*
X0248997Y0348190D01*
X0249087Y0348387D01*
X0249183Y0348583D01*
X0249283Y0348776D01*
X0249388Y0348966D01*
X0249497Y0349154D01*
X0249611Y0349339D01*
X0249730Y0349521D01*
X0249853Y0349701D01*
X0249980Y0349877D01*
X0250112Y0350050D01*
X0250248Y0350219D01*
X0250388Y0350386D01*
X0250532Y0350549D01*
X0250680Y0350708D01*
X0250831Y0350864D01*
X0250987Y0351015D01*
X0251146Y0351163D01*
X0251309Y0351307D01*
X0251476Y0351447D01*
X0251645Y0351583D01*
X0251818Y0351715D01*
X0251994Y0351842D01*
X0252174Y0351965D01*
X0252356Y0352084D01*
X0252541Y0352198D01*
X0252729Y0352307D01*
X0252919Y0352412D01*
X0253112Y0352512D01*
X0253308Y0352608D01*
X0253505Y0352698D01*
X0253705Y0352784D01*
X0253907Y0352864D01*
X0254111Y0352940D01*
X0254316Y0353011D01*
X0254524Y0353077D01*
X0254732Y0353137D01*
X0254943Y0353193D01*
X0255154Y0353243D01*
X0255367Y0353288D01*
X0255581Y0353328D01*
X0255795Y0353362D01*
X0256011Y0353391D01*
X0256227Y0353415D01*
X0256443Y0353434D01*
X0256660Y0353447D01*
X0256878Y0353455D01*
X0257095Y0353458D01*
X0257312Y0353455D01*
X0257530Y0353447D01*
X0257747Y0353434D01*
X0257963Y0353415D01*
X0258179Y0353391D01*
X0258395Y0353362D01*
X0258609Y0353328D01*
X0258823Y0353288D01*
X0259036Y0353243D01*
X0259247Y0353193D01*
X0259458Y0353137D01*
X0259666Y0353077D01*
X0259874Y0353011D01*
X0260079Y0352940D01*
X0260283Y0352864D01*
X0260485Y0352784D01*
X0260685Y0352698D01*
X0260882Y0352608D01*
X0261078Y0352512D01*
X0261271Y0352412D01*
X0261461Y0352307D01*
X0261649Y0352198D01*
X0261834Y0352084D01*
X0262016Y0351965D01*
X0262196Y0351842D01*
X0262372Y0351715D01*
X0262545Y0351583D01*
X0262714Y0351447D01*
X0262881Y0351307D01*
X0263044Y0351163D01*
X0263203Y0351015D01*
X0263359Y0350864D01*
X0263510Y0350708D01*
X0263658Y0350549D01*
X0263802Y0350386D01*
X0263942Y0350219D01*
X0264078Y0350050D01*
X0264210Y0349877D01*
X0264337Y0349701D01*
X0264460Y0349521D01*
X0264579Y0349339D01*
X0264693Y0349154D01*
X0264802Y0348966D01*
X0264907Y0348776D01*
X0265007Y0348583D01*
X0265103Y0348387D01*
X0265193Y0348190D01*
X0265279Y0347990D01*
X0265359Y0347788D01*
X0265435Y0347584D01*
X0265506Y0347379D01*
X0265572Y0347171D01*
X0265632Y0346963D01*
X0265688Y0346752D01*
X0265738Y0346541D01*
X0265783Y0346328D01*
X0265823Y0346114D01*
X0265857Y0345900D01*
X0265886Y0345684D01*
X0265910Y0345468D01*
X0265929Y0345252D01*
X0265942Y0345035D01*
X0265950Y0344817D01*
X0265953Y0344600D01*
X0265950Y0344383D01*
X0265942Y0344165D01*
X0265929Y0343948D01*
X0265910Y0343732D01*
X0265886Y0343516D01*
X0265857Y0343300D01*
X0265823Y0343086D01*
X0265783Y0342872D01*
X0265738Y0342659D01*
X0265688Y0342448D01*
X0265632Y0342237D01*
X0265572Y0342029D01*
X0265506Y0341821D01*
X0265435Y0341616D01*
X0265359Y0341412D01*
X0265279Y0341210D01*
X0265193Y0341010D01*
X0265103Y0340813D01*
X0265007Y0340617D01*
X0264907Y0340424D01*
X0264802Y0340234D01*
X0264693Y0340046D01*
X0264579Y0339861D01*
X0264460Y0339679D01*
X0264337Y0339499D01*
X0264210Y0339323D01*
X0264078Y0339150D01*
X0263942Y0338981D01*
X0263802Y0338814D01*
X0263658Y0338651D01*
X0263510Y0338492D01*
X0263359Y0338336D01*
X0263203Y0338185D01*
X0263044Y0338037D01*
X0262881Y0337893D01*
X0262714Y0337753D01*
X0262545Y0337617D01*
X0262372Y0337485D01*
X0262196Y0337358D01*
X0262016Y0337235D01*
X0261834Y0337116D01*
X0261649Y0337002D01*
X0261461Y0336893D01*
X0261271Y0336788D01*
X0261078Y0336688D01*
X0260882Y0336592D01*
X0260685Y0336502D01*
X0260485Y0336416D01*
X0260283Y0336336D01*
X0260079Y0336260D01*
X0259874Y0336189D01*
X0259666Y0336123D01*
X0259458Y0336063D01*
X0259247Y0336007D01*
X0259036Y0335957D01*
X0258823Y0335912D01*
X0258609Y0335872D01*
X0258395Y0335838D01*
X0258179Y0335809D01*
X0257963Y0335785D01*
X0257747Y0335766D01*
X0257530Y0335753D01*
X0257312Y0335745D01*
X0257095Y0335742D01*
X0256878Y0335745D01*
X0256660Y0335753D01*
X0256443Y0335766D01*
X0256227Y0335785D01*
X0256011Y0335809D01*
X0255795Y0335838D01*
X0255581Y0335872D01*
X0255367Y0335912D01*
X0255154Y0335957D01*
X0254943Y0336007D01*
X0254732Y0336063D01*
X0254524Y0336123D01*
X0254316Y0336189D01*
X0254111Y0336260D01*
X0253907Y0336336D01*
X0253705Y0336416D01*
X0253505Y0336502D01*
X0253308Y0336592D01*
X0253112Y0336688D01*
X0252919Y0336788D01*
X0252729Y0336893D01*
X0252541Y0337002D01*
X0252356Y0337116D01*
X0252174Y0337235D01*
X0251994Y0337358D01*
X0251818Y0337485D01*
X0251645Y0337617D01*
X0251476Y0337753D01*
X0251309Y0337893D01*
X0251146Y0338037D01*
X0250987Y0338185D01*
X0250831Y0338336D01*
X0250680Y0338492D01*
X0250532Y0338651D01*
X0250388Y0338814D01*
X0250248Y0338981D01*
X0250112Y0339150D01*
X0249980Y0339323D01*
X0249853Y0339499D01*
X0249730Y0339679D01*
X0249611Y0339861D01*
X0249497Y0340046D01*
X0249388Y0340234D01*
X0249283Y0340424D01*
X0249183Y0340617D01*
X0249087Y0340813D01*
X0248997Y0341010D01*
X0248911Y0341210D01*
X0248831Y0341412D01*
X0248755Y0341616D01*
X0248684Y0341821D01*
X0248618Y0342029D01*
X0248558Y0342237D01*
X0248502Y0342448D01*
X0248452Y0342659D01*
X0248407Y0342872D01*
X0248367Y0343086D01*
X0248333Y0343300D01*
X0248304Y0343516D01*
X0248280Y0343732D01*
X0248261Y0343948D01*
X0248248Y0344165D01*
X0248240Y0344383D01*
X0248237Y0344600D01*
X0343595Y0303350D02*
X0343597Y0303498D01*
X0343603Y0303646D01*
X0343613Y0303794D01*
X0343627Y0303942D01*
X0343645Y0304089D01*
X0343667Y0304236D01*
X0343693Y0304382D01*
X0343722Y0304527D01*
X0343756Y0304672D01*
X0343794Y0304815D01*
X0343835Y0304958D01*
X0343880Y0305099D01*
X0343930Y0305239D01*
X0343982Y0305377D01*
X0344039Y0305515D01*
X0344099Y0305650D01*
X0344163Y0305784D01*
X0344230Y0305916D01*
X0344301Y0306046D01*
X0344376Y0306175D01*
X0344454Y0306301D01*
X0344535Y0306425D01*
X0344619Y0306547D01*
X0344707Y0306666D01*
X0344798Y0306783D01*
X0344892Y0306898D01*
X0344990Y0307010D01*
X0345090Y0307119D01*
X0345193Y0307226D01*
X0345299Y0307330D01*
X0345407Y0307431D01*
X0345519Y0307529D01*
X0345633Y0307624D01*
X0345749Y0307715D01*
X0345868Y0307804D01*
X0345989Y0307889D01*
X0346113Y0307971D01*
X0346239Y0308050D01*
X0346366Y0308125D01*
X0346496Y0308197D01*
X0346628Y0308266D01*
X0346761Y0308330D01*
X0346896Y0308391D01*
X0347033Y0308449D01*
X0347171Y0308503D01*
X0347311Y0308553D01*
X0347452Y0308599D01*
X0347594Y0308641D01*
X0347737Y0308680D01*
X0347881Y0308714D01*
X0348027Y0308745D01*
X0348172Y0308772D01*
X0348319Y0308795D01*
X0348466Y0308814D01*
X0348614Y0308829D01*
X0348761Y0308840D01*
X0348910Y0308847D01*
X0349058Y0308850D01*
X0349206Y0308849D01*
X0349354Y0308844D01*
X0349502Y0308835D01*
X0349650Y0308822D01*
X0349798Y0308805D01*
X0349944Y0308784D01*
X0350091Y0308759D01*
X0350236Y0308730D01*
X0350381Y0308698D01*
X0350524Y0308661D01*
X0350667Y0308621D01*
X0350809Y0308576D01*
X0350949Y0308528D01*
X0351088Y0308476D01*
X0351225Y0308421D01*
X0351361Y0308361D01*
X0351496Y0308298D01*
X0351628Y0308232D01*
X0351759Y0308162D01*
X0351888Y0308088D01*
X0352014Y0308011D01*
X0352139Y0307931D01*
X0352261Y0307847D01*
X0352382Y0307760D01*
X0352499Y0307670D01*
X0352615Y0307576D01*
X0352727Y0307480D01*
X0352837Y0307381D01*
X0352945Y0307278D01*
X0353049Y0307173D01*
X0353151Y0307065D01*
X0353249Y0306954D01*
X0353345Y0306841D01*
X0353438Y0306725D01*
X0353527Y0306607D01*
X0353613Y0306486D01*
X0353696Y0306363D01*
X0353776Y0306238D01*
X0353852Y0306111D01*
X0353925Y0305981D01*
X0353994Y0305850D01*
X0354059Y0305717D01*
X0354122Y0305583D01*
X0354180Y0305446D01*
X0354235Y0305308D01*
X0354285Y0305169D01*
X0354333Y0305028D01*
X0354376Y0304887D01*
X0354416Y0304744D01*
X0354451Y0304600D01*
X0354483Y0304455D01*
X0354511Y0304309D01*
X0354535Y0304163D01*
X0354555Y0304016D01*
X0354571Y0303868D01*
X0354583Y0303721D01*
X0354591Y0303572D01*
X0354595Y0303424D01*
X0354595Y0303276D01*
X0354591Y0303128D01*
X0354583Y0302979D01*
X0354571Y0302832D01*
X0354555Y0302684D01*
X0354535Y0302537D01*
X0354511Y0302391D01*
X0354483Y0302245D01*
X0354451Y0302100D01*
X0354416Y0301956D01*
X0354376Y0301813D01*
X0354333Y0301672D01*
X0354285Y0301531D01*
X0354235Y0301392D01*
X0354180Y0301254D01*
X0354122Y0301117D01*
X0354059Y0300983D01*
X0353994Y0300850D01*
X0353925Y0300719D01*
X0353852Y0300589D01*
X0353776Y0300462D01*
X0353696Y0300337D01*
X0353613Y0300214D01*
X0353527Y0300093D01*
X0353438Y0299975D01*
X0353345Y0299859D01*
X0353249Y0299746D01*
X0353151Y0299635D01*
X0353049Y0299527D01*
X0352945Y0299422D01*
X0352837Y0299319D01*
X0352727Y0299220D01*
X0352615Y0299124D01*
X0352499Y0299030D01*
X0352382Y0298940D01*
X0352261Y0298853D01*
X0352139Y0298769D01*
X0352014Y0298689D01*
X0351888Y0298612D01*
X0351759Y0298538D01*
X0351628Y0298468D01*
X0351496Y0298402D01*
X0351361Y0298339D01*
X0351225Y0298279D01*
X0351088Y0298224D01*
X0350949Y0298172D01*
X0350809Y0298124D01*
X0350667Y0298079D01*
X0350524Y0298039D01*
X0350381Y0298002D01*
X0350236Y0297970D01*
X0350091Y0297941D01*
X0349944Y0297916D01*
X0349798Y0297895D01*
X0349650Y0297878D01*
X0349502Y0297865D01*
X0349354Y0297856D01*
X0349206Y0297851D01*
X0349058Y0297850D01*
X0348910Y0297853D01*
X0348761Y0297860D01*
X0348614Y0297871D01*
X0348466Y0297886D01*
X0348319Y0297905D01*
X0348172Y0297928D01*
X0348027Y0297955D01*
X0347881Y0297986D01*
X0347737Y0298020D01*
X0347594Y0298059D01*
X0347452Y0298101D01*
X0347311Y0298147D01*
X0347171Y0298197D01*
X0347033Y0298251D01*
X0346896Y0298309D01*
X0346761Y0298370D01*
X0346628Y0298434D01*
X0346496Y0298503D01*
X0346366Y0298575D01*
X0346239Y0298650D01*
X0346113Y0298729D01*
X0345989Y0298811D01*
X0345868Y0298896D01*
X0345749Y0298985D01*
X0345633Y0299076D01*
X0345519Y0299171D01*
X0345407Y0299269D01*
X0345299Y0299370D01*
X0345193Y0299474D01*
X0345090Y0299581D01*
X0344990Y0299690D01*
X0344892Y0299802D01*
X0344798Y0299917D01*
X0344707Y0300034D01*
X0344619Y0300153D01*
X0344535Y0300275D01*
X0344454Y0300399D01*
X0344376Y0300525D01*
X0344301Y0300654D01*
X0344230Y0300784D01*
X0344163Y0300916D01*
X0344099Y0301050D01*
X0344039Y0301185D01*
X0343982Y0301323D01*
X0343930Y0301461D01*
X0343880Y0301601D01*
X0343835Y0301742D01*
X0343794Y0301885D01*
X0343756Y0302028D01*
X0343722Y0302173D01*
X0343693Y0302318D01*
X0343667Y0302464D01*
X0343645Y0302611D01*
X0343627Y0302758D01*
X0343613Y0302906D01*
X0343603Y0303054D01*
X0343597Y0303202D01*
X0343595Y0303350D01*
X0343595Y0212799D02*
X0343597Y0212947D01*
X0343603Y0213095D01*
X0343613Y0213243D01*
X0343627Y0213391D01*
X0343645Y0213538D01*
X0343667Y0213685D01*
X0343693Y0213831D01*
X0343722Y0213976D01*
X0343756Y0214121D01*
X0343794Y0214264D01*
X0343835Y0214407D01*
X0343880Y0214548D01*
X0343930Y0214688D01*
X0343982Y0214826D01*
X0344039Y0214964D01*
X0344099Y0215099D01*
X0344163Y0215233D01*
X0344230Y0215365D01*
X0344301Y0215495D01*
X0344376Y0215624D01*
X0344454Y0215750D01*
X0344535Y0215874D01*
X0344619Y0215996D01*
X0344707Y0216115D01*
X0344798Y0216232D01*
X0344892Y0216347D01*
X0344990Y0216459D01*
X0345090Y0216568D01*
X0345193Y0216675D01*
X0345299Y0216779D01*
X0345407Y0216880D01*
X0345519Y0216978D01*
X0345633Y0217073D01*
X0345749Y0217164D01*
X0345868Y0217253D01*
X0345989Y0217338D01*
X0346113Y0217420D01*
X0346239Y0217499D01*
X0346366Y0217574D01*
X0346496Y0217646D01*
X0346628Y0217715D01*
X0346761Y0217779D01*
X0346896Y0217840D01*
X0347033Y0217898D01*
X0347171Y0217952D01*
X0347311Y0218002D01*
X0347452Y0218048D01*
X0347594Y0218090D01*
X0347737Y0218129D01*
X0347881Y0218163D01*
X0348027Y0218194D01*
X0348172Y0218221D01*
X0348319Y0218244D01*
X0348466Y0218263D01*
X0348614Y0218278D01*
X0348761Y0218289D01*
X0348910Y0218296D01*
X0349058Y0218299D01*
X0349206Y0218298D01*
X0349354Y0218293D01*
X0349502Y0218284D01*
X0349650Y0218271D01*
X0349798Y0218254D01*
X0349944Y0218233D01*
X0350091Y0218208D01*
X0350236Y0218179D01*
X0350381Y0218147D01*
X0350524Y0218110D01*
X0350667Y0218070D01*
X0350809Y0218025D01*
X0350949Y0217977D01*
X0351088Y0217925D01*
X0351225Y0217870D01*
X0351361Y0217810D01*
X0351496Y0217747D01*
X0351628Y0217681D01*
X0351759Y0217611D01*
X0351888Y0217537D01*
X0352014Y0217460D01*
X0352139Y0217380D01*
X0352261Y0217296D01*
X0352382Y0217209D01*
X0352499Y0217119D01*
X0352615Y0217025D01*
X0352727Y0216929D01*
X0352837Y0216830D01*
X0352945Y0216727D01*
X0353049Y0216622D01*
X0353151Y0216514D01*
X0353249Y0216403D01*
X0353345Y0216290D01*
X0353438Y0216174D01*
X0353527Y0216056D01*
X0353613Y0215935D01*
X0353696Y0215812D01*
X0353776Y0215687D01*
X0353852Y0215560D01*
X0353925Y0215430D01*
X0353994Y0215299D01*
X0354059Y0215166D01*
X0354122Y0215032D01*
X0354180Y0214895D01*
X0354235Y0214757D01*
X0354285Y0214618D01*
X0354333Y0214477D01*
X0354376Y0214336D01*
X0354416Y0214193D01*
X0354451Y0214049D01*
X0354483Y0213904D01*
X0354511Y0213758D01*
X0354535Y0213612D01*
X0354555Y0213465D01*
X0354571Y0213317D01*
X0354583Y0213170D01*
X0354591Y0213021D01*
X0354595Y0212873D01*
X0354595Y0212725D01*
X0354591Y0212577D01*
X0354583Y0212428D01*
X0354571Y0212281D01*
X0354555Y0212133D01*
X0354535Y0211986D01*
X0354511Y0211840D01*
X0354483Y0211694D01*
X0354451Y0211549D01*
X0354416Y0211405D01*
X0354376Y0211262D01*
X0354333Y0211121D01*
X0354285Y0210980D01*
X0354235Y0210841D01*
X0354180Y0210703D01*
X0354122Y0210566D01*
X0354059Y0210432D01*
X0353994Y0210299D01*
X0353925Y0210168D01*
X0353852Y0210038D01*
X0353776Y0209911D01*
X0353696Y0209786D01*
X0353613Y0209663D01*
X0353527Y0209542D01*
X0353438Y0209424D01*
X0353345Y0209308D01*
X0353249Y0209195D01*
X0353151Y0209084D01*
X0353049Y0208976D01*
X0352945Y0208871D01*
X0352837Y0208768D01*
X0352727Y0208669D01*
X0352615Y0208573D01*
X0352499Y0208479D01*
X0352382Y0208389D01*
X0352261Y0208302D01*
X0352139Y0208218D01*
X0352014Y0208138D01*
X0351888Y0208061D01*
X0351759Y0207987D01*
X0351628Y0207917D01*
X0351496Y0207851D01*
X0351361Y0207788D01*
X0351225Y0207728D01*
X0351088Y0207673D01*
X0350949Y0207621D01*
X0350809Y0207573D01*
X0350667Y0207528D01*
X0350524Y0207488D01*
X0350381Y0207451D01*
X0350236Y0207419D01*
X0350091Y0207390D01*
X0349944Y0207365D01*
X0349798Y0207344D01*
X0349650Y0207327D01*
X0349502Y0207314D01*
X0349354Y0207305D01*
X0349206Y0207300D01*
X0349058Y0207299D01*
X0348910Y0207302D01*
X0348761Y0207309D01*
X0348614Y0207320D01*
X0348466Y0207335D01*
X0348319Y0207354D01*
X0348172Y0207377D01*
X0348027Y0207404D01*
X0347881Y0207435D01*
X0347737Y0207469D01*
X0347594Y0207508D01*
X0347452Y0207550D01*
X0347311Y0207596D01*
X0347171Y0207646D01*
X0347033Y0207700D01*
X0346896Y0207758D01*
X0346761Y0207819D01*
X0346628Y0207883D01*
X0346496Y0207952D01*
X0346366Y0208024D01*
X0346239Y0208099D01*
X0346113Y0208178D01*
X0345989Y0208260D01*
X0345868Y0208345D01*
X0345749Y0208434D01*
X0345633Y0208525D01*
X0345519Y0208620D01*
X0345407Y0208718D01*
X0345299Y0208819D01*
X0345193Y0208923D01*
X0345090Y0209030D01*
X0344990Y0209139D01*
X0344892Y0209251D01*
X0344798Y0209366D01*
X0344707Y0209483D01*
X0344619Y0209602D01*
X0344535Y0209724D01*
X0344454Y0209848D01*
X0344376Y0209974D01*
X0344301Y0210103D01*
X0344230Y0210233D01*
X0344163Y0210365D01*
X0344099Y0210499D01*
X0344039Y0210634D01*
X0343982Y0210772D01*
X0343930Y0210910D01*
X0343880Y0211050D01*
X0343835Y0211191D01*
X0343794Y0211334D01*
X0343756Y0211477D01*
X0343722Y0211622D01*
X0343693Y0211767D01*
X0343667Y0211913D01*
X0343645Y0212060D01*
X0343627Y0212207D01*
X0343613Y0212355D01*
X0343603Y0212503D01*
X0343597Y0212651D01*
X0343595Y0212799D01*
X0343845Y0110350D02*
X0343847Y0110498D01*
X0343853Y0110646D01*
X0343863Y0110794D01*
X0343877Y0110942D01*
X0343895Y0111089D01*
X0343917Y0111236D01*
X0343943Y0111382D01*
X0343972Y0111527D01*
X0344006Y0111672D01*
X0344044Y0111815D01*
X0344085Y0111958D01*
X0344130Y0112099D01*
X0344180Y0112239D01*
X0344232Y0112377D01*
X0344289Y0112515D01*
X0344349Y0112650D01*
X0344413Y0112784D01*
X0344480Y0112916D01*
X0344551Y0113046D01*
X0344626Y0113175D01*
X0344704Y0113301D01*
X0344785Y0113425D01*
X0344869Y0113547D01*
X0344957Y0113666D01*
X0345048Y0113783D01*
X0345142Y0113898D01*
X0345240Y0114010D01*
X0345340Y0114119D01*
X0345443Y0114226D01*
X0345549Y0114330D01*
X0345657Y0114431D01*
X0345769Y0114529D01*
X0345883Y0114624D01*
X0345999Y0114715D01*
X0346118Y0114804D01*
X0346239Y0114889D01*
X0346363Y0114971D01*
X0346489Y0115050D01*
X0346616Y0115125D01*
X0346746Y0115197D01*
X0346878Y0115266D01*
X0347011Y0115330D01*
X0347146Y0115391D01*
X0347283Y0115449D01*
X0347421Y0115503D01*
X0347561Y0115553D01*
X0347702Y0115599D01*
X0347844Y0115641D01*
X0347987Y0115680D01*
X0348131Y0115714D01*
X0348277Y0115745D01*
X0348422Y0115772D01*
X0348569Y0115795D01*
X0348716Y0115814D01*
X0348864Y0115829D01*
X0349011Y0115840D01*
X0349160Y0115847D01*
X0349308Y0115850D01*
X0349456Y0115849D01*
X0349604Y0115844D01*
X0349752Y0115835D01*
X0349900Y0115822D01*
X0350048Y0115805D01*
X0350194Y0115784D01*
X0350341Y0115759D01*
X0350486Y0115730D01*
X0350631Y0115698D01*
X0350774Y0115661D01*
X0350917Y0115621D01*
X0351059Y0115576D01*
X0351199Y0115528D01*
X0351338Y0115476D01*
X0351475Y0115421D01*
X0351611Y0115361D01*
X0351746Y0115298D01*
X0351878Y0115232D01*
X0352009Y0115162D01*
X0352138Y0115088D01*
X0352264Y0115011D01*
X0352389Y0114931D01*
X0352511Y0114847D01*
X0352632Y0114760D01*
X0352749Y0114670D01*
X0352865Y0114576D01*
X0352977Y0114480D01*
X0353087Y0114381D01*
X0353195Y0114278D01*
X0353299Y0114173D01*
X0353401Y0114065D01*
X0353499Y0113954D01*
X0353595Y0113841D01*
X0353688Y0113725D01*
X0353777Y0113607D01*
X0353863Y0113486D01*
X0353946Y0113363D01*
X0354026Y0113238D01*
X0354102Y0113111D01*
X0354175Y0112981D01*
X0354244Y0112850D01*
X0354309Y0112717D01*
X0354372Y0112583D01*
X0354430Y0112446D01*
X0354485Y0112308D01*
X0354535Y0112169D01*
X0354583Y0112028D01*
X0354626Y0111887D01*
X0354666Y0111744D01*
X0354701Y0111600D01*
X0354733Y0111455D01*
X0354761Y0111309D01*
X0354785Y0111163D01*
X0354805Y0111016D01*
X0354821Y0110868D01*
X0354833Y0110721D01*
X0354841Y0110572D01*
X0354845Y0110424D01*
X0354845Y0110276D01*
X0354841Y0110128D01*
X0354833Y0109979D01*
X0354821Y0109832D01*
X0354805Y0109684D01*
X0354785Y0109537D01*
X0354761Y0109391D01*
X0354733Y0109245D01*
X0354701Y0109100D01*
X0354666Y0108956D01*
X0354626Y0108813D01*
X0354583Y0108672D01*
X0354535Y0108531D01*
X0354485Y0108392D01*
X0354430Y0108254D01*
X0354372Y0108117D01*
X0354309Y0107983D01*
X0354244Y0107850D01*
X0354175Y0107719D01*
X0354102Y0107589D01*
X0354026Y0107462D01*
X0353946Y0107337D01*
X0353863Y0107214D01*
X0353777Y0107093D01*
X0353688Y0106975D01*
X0353595Y0106859D01*
X0353499Y0106746D01*
X0353401Y0106635D01*
X0353299Y0106527D01*
X0353195Y0106422D01*
X0353087Y0106319D01*
X0352977Y0106220D01*
X0352865Y0106124D01*
X0352749Y0106030D01*
X0352632Y0105940D01*
X0352511Y0105853D01*
X0352389Y0105769D01*
X0352264Y0105689D01*
X0352138Y0105612D01*
X0352009Y0105538D01*
X0351878Y0105468D01*
X0351746Y0105402D01*
X0351611Y0105339D01*
X0351475Y0105279D01*
X0351338Y0105224D01*
X0351199Y0105172D01*
X0351059Y0105124D01*
X0350917Y0105079D01*
X0350774Y0105039D01*
X0350631Y0105002D01*
X0350486Y0104970D01*
X0350341Y0104941D01*
X0350194Y0104916D01*
X0350048Y0104895D01*
X0349900Y0104878D01*
X0349752Y0104865D01*
X0349604Y0104856D01*
X0349456Y0104851D01*
X0349308Y0104850D01*
X0349160Y0104853D01*
X0349011Y0104860D01*
X0348864Y0104871D01*
X0348716Y0104886D01*
X0348569Y0104905D01*
X0348422Y0104928D01*
X0348277Y0104955D01*
X0348131Y0104986D01*
X0347987Y0105020D01*
X0347844Y0105059D01*
X0347702Y0105101D01*
X0347561Y0105147D01*
X0347421Y0105197D01*
X0347283Y0105251D01*
X0347146Y0105309D01*
X0347011Y0105370D01*
X0346878Y0105434D01*
X0346746Y0105503D01*
X0346616Y0105575D01*
X0346489Y0105650D01*
X0346363Y0105729D01*
X0346239Y0105811D01*
X0346118Y0105896D01*
X0345999Y0105985D01*
X0345883Y0106076D01*
X0345769Y0106171D01*
X0345657Y0106269D01*
X0345549Y0106370D01*
X0345443Y0106474D01*
X0345340Y0106581D01*
X0345240Y0106690D01*
X0345142Y0106802D01*
X0345048Y0106917D01*
X0344957Y0107034D01*
X0344869Y0107153D01*
X0344785Y0107275D01*
X0344704Y0107399D01*
X0344626Y0107525D01*
X0344551Y0107654D01*
X0344480Y0107784D01*
X0344413Y0107916D01*
X0344349Y0108050D01*
X0344289Y0108185D01*
X0344232Y0108323D01*
X0344180Y0108461D01*
X0344130Y0108601D01*
X0344085Y0108742D01*
X0344044Y0108885D01*
X0344006Y0109028D01*
X0343972Y0109173D01*
X0343943Y0109318D01*
X0343917Y0109464D01*
X0343895Y0109611D01*
X0343877Y0109758D01*
X0343863Y0109906D01*
X0343853Y0110054D01*
X0343847Y0110202D01*
X0343845Y0110350D01*
X0248237Y0069100D02*
X0248240Y0069317D01*
X0248248Y0069535D01*
X0248261Y0069752D01*
X0248280Y0069968D01*
X0248304Y0070184D01*
X0248333Y0070400D01*
X0248367Y0070614D01*
X0248407Y0070828D01*
X0248452Y0071041D01*
X0248502Y0071252D01*
X0248558Y0071463D01*
X0248618Y0071671D01*
X0248684Y0071879D01*
X0248755Y0072084D01*
X0248831Y0072288D01*
X0248911Y0072490D01*
X0248997Y0072690D01*
X0249087Y0072887D01*
X0249183Y0073083D01*
X0249283Y0073276D01*
X0249388Y0073466D01*
X0249497Y0073654D01*
X0249611Y0073839D01*
X0249730Y0074021D01*
X0249853Y0074201D01*
X0249980Y0074377D01*
X0250112Y0074550D01*
X0250248Y0074719D01*
X0250388Y0074886D01*
X0250532Y0075049D01*
X0250680Y0075208D01*
X0250831Y0075364D01*
X0250987Y0075515D01*
X0251146Y0075663D01*
X0251309Y0075807D01*
X0251476Y0075947D01*
X0251645Y0076083D01*
X0251818Y0076215D01*
X0251994Y0076342D01*
X0252174Y0076465D01*
X0252356Y0076584D01*
X0252541Y0076698D01*
X0252729Y0076807D01*
X0252919Y0076912D01*
X0253112Y0077012D01*
X0253308Y0077108D01*
X0253505Y0077198D01*
X0253705Y0077284D01*
X0253907Y0077364D01*
X0254111Y0077440D01*
X0254316Y0077511D01*
X0254524Y0077577D01*
X0254732Y0077637D01*
X0254943Y0077693D01*
X0255154Y0077743D01*
X0255367Y0077788D01*
X0255581Y0077828D01*
X0255795Y0077862D01*
X0256011Y0077891D01*
X0256227Y0077915D01*
X0256443Y0077934D01*
X0256660Y0077947D01*
X0256878Y0077955D01*
X0257095Y0077958D01*
X0257312Y0077955D01*
X0257530Y0077947D01*
X0257747Y0077934D01*
X0257963Y0077915D01*
X0258179Y0077891D01*
X0258395Y0077862D01*
X0258609Y0077828D01*
X0258823Y0077788D01*
X0259036Y0077743D01*
X0259247Y0077693D01*
X0259458Y0077637D01*
X0259666Y0077577D01*
X0259874Y0077511D01*
X0260079Y0077440D01*
X0260283Y0077364D01*
X0260485Y0077284D01*
X0260685Y0077198D01*
X0260882Y0077108D01*
X0261078Y0077012D01*
X0261271Y0076912D01*
X0261461Y0076807D01*
X0261649Y0076698D01*
X0261834Y0076584D01*
X0262016Y0076465D01*
X0262196Y0076342D01*
X0262372Y0076215D01*
X0262545Y0076083D01*
X0262714Y0075947D01*
X0262881Y0075807D01*
X0263044Y0075663D01*
X0263203Y0075515D01*
X0263359Y0075364D01*
X0263510Y0075208D01*
X0263658Y0075049D01*
X0263802Y0074886D01*
X0263942Y0074719D01*
X0264078Y0074550D01*
X0264210Y0074377D01*
X0264337Y0074201D01*
X0264460Y0074021D01*
X0264579Y0073839D01*
X0264693Y0073654D01*
X0264802Y0073466D01*
X0264907Y0073276D01*
X0265007Y0073083D01*
X0265103Y0072887D01*
X0265193Y0072690D01*
X0265279Y0072490D01*
X0265359Y0072288D01*
X0265435Y0072084D01*
X0265506Y0071879D01*
X0265572Y0071671D01*
X0265632Y0071463D01*
X0265688Y0071252D01*
X0265738Y0071041D01*
X0265783Y0070828D01*
X0265823Y0070614D01*
X0265857Y0070400D01*
X0265886Y0070184D01*
X0265910Y0069968D01*
X0265929Y0069752D01*
X0265942Y0069535D01*
X0265950Y0069317D01*
X0265953Y0069100D01*
X0265950Y0068883D01*
X0265942Y0068665D01*
X0265929Y0068448D01*
X0265910Y0068232D01*
X0265886Y0068016D01*
X0265857Y0067800D01*
X0265823Y0067586D01*
X0265783Y0067372D01*
X0265738Y0067159D01*
X0265688Y0066948D01*
X0265632Y0066737D01*
X0265572Y0066529D01*
X0265506Y0066321D01*
X0265435Y0066116D01*
X0265359Y0065912D01*
X0265279Y0065710D01*
X0265193Y0065510D01*
X0265103Y0065313D01*
X0265007Y0065117D01*
X0264907Y0064924D01*
X0264802Y0064734D01*
X0264693Y0064546D01*
X0264579Y0064361D01*
X0264460Y0064179D01*
X0264337Y0063999D01*
X0264210Y0063823D01*
X0264078Y0063650D01*
X0263942Y0063481D01*
X0263802Y0063314D01*
X0263658Y0063151D01*
X0263510Y0062992D01*
X0263359Y0062836D01*
X0263203Y0062685D01*
X0263044Y0062537D01*
X0262881Y0062393D01*
X0262714Y0062253D01*
X0262545Y0062117D01*
X0262372Y0061985D01*
X0262196Y0061858D01*
X0262016Y0061735D01*
X0261834Y0061616D01*
X0261649Y0061502D01*
X0261461Y0061393D01*
X0261271Y0061288D01*
X0261078Y0061188D01*
X0260882Y0061092D01*
X0260685Y0061002D01*
X0260485Y0060916D01*
X0260283Y0060836D01*
X0260079Y0060760D01*
X0259874Y0060689D01*
X0259666Y0060623D01*
X0259458Y0060563D01*
X0259247Y0060507D01*
X0259036Y0060457D01*
X0258823Y0060412D01*
X0258609Y0060372D01*
X0258395Y0060338D01*
X0258179Y0060309D01*
X0257963Y0060285D01*
X0257747Y0060266D01*
X0257530Y0060253D01*
X0257312Y0060245D01*
X0257095Y0060242D01*
X0256878Y0060245D01*
X0256660Y0060253D01*
X0256443Y0060266D01*
X0256227Y0060285D01*
X0256011Y0060309D01*
X0255795Y0060338D01*
X0255581Y0060372D01*
X0255367Y0060412D01*
X0255154Y0060457D01*
X0254943Y0060507D01*
X0254732Y0060563D01*
X0254524Y0060623D01*
X0254316Y0060689D01*
X0254111Y0060760D01*
X0253907Y0060836D01*
X0253705Y0060916D01*
X0253505Y0061002D01*
X0253308Y0061092D01*
X0253112Y0061188D01*
X0252919Y0061288D01*
X0252729Y0061393D01*
X0252541Y0061502D01*
X0252356Y0061616D01*
X0252174Y0061735D01*
X0251994Y0061858D01*
X0251818Y0061985D01*
X0251645Y0062117D01*
X0251476Y0062253D01*
X0251309Y0062393D01*
X0251146Y0062537D01*
X0250987Y0062685D01*
X0250831Y0062836D01*
X0250680Y0062992D01*
X0250532Y0063151D01*
X0250388Y0063314D01*
X0250248Y0063481D01*
X0250112Y0063650D01*
X0249980Y0063823D01*
X0249853Y0063999D01*
X0249730Y0064179D01*
X0249611Y0064361D01*
X0249497Y0064546D01*
X0249388Y0064734D01*
X0249283Y0064924D01*
X0249183Y0065117D01*
X0249087Y0065313D01*
X0248997Y0065510D01*
X0248911Y0065710D01*
X0248831Y0065912D01*
X0248755Y0066116D01*
X0248684Y0066321D01*
X0248618Y0066529D01*
X0248558Y0066737D01*
X0248502Y0066948D01*
X0248452Y0067159D01*
X0248407Y0067372D01*
X0248367Y0067586D01*
X0248333Y0067800D01*
X0248304Y0068016D01*
X0248280Y0068232D01*
X0248261Y0068448D01*
X0248248Y0068665D01*
X0248240Y0068883D01*
X0248237Y0069100D01*
X0250595Y0025600D02*
X0250597Y0025761D01*
X0250603Y0025921D01*
X0250613Y0026082D01*
X0250627Y0026242D01*
X0250645Y0026402D01*
X0250666Y0026561D01*
X0250692Y0026720D01*
X0250722Y0026878D01*
X0250755Y0027035D01*
X0250793Y0027192D01*
X0250834Y0027347D01*
X0250879Y0027501D01*
X0250928Y0027654D01*
X0250981Y0027806D01*
X0251037Y0027957D01*
X0251098Y0028106D01*
X0251161Y0028254D01*
X0251229Y0028400D01*
X0251300Y0028544D01*
X0251374Y0028686D01*
X0251452Y0028827D01*
X0251534Y0028965D01*
X0251619Y0029102D01*
X0251707Y0029236D01*
X0251799Y0029368D01*
X0251894Y0029498D01*
X0251992Y0029626D01*
X0252093Y0029751D01*
X0252197Y0029873D01*
X0252304Y0029993D01*
X0252414Y0030110D01*
X0252527Y0030225D01*
X0252643Y0030336D01*
X0252762Y0030445D01*
X0252883Y0030550D01*
X0253007Y0030653D01*
X0253133Y0030753D01*
X0253261Y0030849D01*
X0253392Y0030942D01*
X0253526Y0031032D01*
X0253661Y0031119D01*
X0253799Y0031202D01*
X0253938Y0031282D01*
X0254080Y0031358D01*
X0254223Y0031431D01*
X0254368Y0031500D01*
X0254515Y0031566D01*
X0254663Y0031628D01*
X0254813Y0031686D01*
X0254964Y0031741D01*
X0255117Y0031792D01*
X0255271Y0031839D01*
X0255426Y0031882D01*
X0255582Y0031921D01*
X0255738Y0031957D01*
X0255896Y0031988D01*
X0256054Y0032016D01*
X0256213Y0032040D01*
X0256373Y0032060D01*
X0256533Y0032076D01*
X0256693Y0032088D01*
X0256854Y0032096D01*
X0257015Y0032100D01*
X0257175Y0032100D01*
X0257336Y0032096D01*
X0257497Y0032088D01*
X0257657Y0032076D01*
X0257817Y0032060D01*
X0257977Y0032040D01*
X0258136Y0032016D01*
X0258294Y0031988D01*
X0258452Y0031957D01*
X0258608Y0031921D01*
X0258764Y0031882D01*
X0258919Y0031839D01*
X0259073Y0031792D01*
X0259226Y0031741D01*
X0259377Y0031686D01*
X0259527Y0031628D01*
X0259675Y0031566D01*
X0259822Y0031500D01*
X0259967Y0031431D01*
X0260110Y0031358D01*
X0260252Y0031282D01*
X0260391Y0031202D01*
X0260529Y0031119D01*
X0260664Y0031032D01*
X0260798Y0030942D01*
X0260929Y0030849D01*
X0261057Y0030753D01*
X0261183Y0030653D01*
X0261307Y0030550D01*
X0261428Y0030445D01*
X0261547Y0030336D01*
X0261663Y0030225D01*
X0261776Y0030110D01*
X0261886Y0029993D01*
X0261993Y0029873D01*
X0262097Y0029751D01*
X0262198Y0029626D01*
X0262296Y0029498D01*
X0262391Y0029368D01*
X0262483Y0029236D01*
X0262571Y0029102D01*
X0262656Y0028965D01*
X0262738Y0028827D01*
X0262816Y0028686D01*
X0262890Y0028544D01*
X0262961Y0028400D01*
X0263029Y0028254D01*
X0263092Y0028106D01*
X0263153Y0027957D01*
X0263209Y0027806D01*
X0263262Y0027654D01*
X0263311Y0027501D01*
X0263356Y0027347D01*
X0263397Y0027192D01*
X0263435Y0027035D01*
X0263468Y0026878D01*
X0263498Y0026720D01*
X0263524Y0026561D01*
X0263545Y0026402D01*
X0263563Y0026242D01*
X0263577Y0026082D01*
X0263587Y0025921D01*
X0263593Y0025761D01*
X0263595Y0025600D01*
X0263593Y0025439D01*
X0263587Y0025279D01*
X0263577Y0025118D01*
X0263563Y0024958D01*
X0263545Y0024798D01*
X0263524Y0024639D01*
X0263498Y0024480D01*
X0263468Y0024322D01*
X0263435Y0024165D01*
X0263397Y0024008D01*
X0263356Y0023853D01*
X0263311Y0023699D01*
X0263262Y0023546D01*
X0263209Y0023394D01*
X0263153Y0023243D01*
X0263092Y0023094D01*
X0263029Y0022946D01*
X0262961Y0022800D01*
X0262890Y0022656D01*
X0262816Y0022514D01*
X0262738Y0022373D01*
X0262656Y0022235D01*
X0262571Y0022098D01*
X0262483Y0021964D01*
X0262391Y0021832D01*
X0262296Y0021702D01*
X0262198Y0021574D01*
X0262097Y0021449D01*
X0261993Y0021327D01*
X0261886Y0021207D01*
X0261776Y0021090D01*
X0261663Y0020975D01*
X0261547Y0020864D01*
X0261428Y0020755D01*
X0261307Y0020650D01*
X0261183Y0020547D01*
X0261057Y0020447D01*
X0260929Y0020351D01*
X0260798Y0020258D01*
X0260664Y0020168D01*
X0260529Y0020081D01*
X0260391Y0019998D01*
X0260252Y0019918D01*
X0260110Y0019842D01*
X0259967Y0019769D01*
X0259822Y0019700D01*
X0259675Y0019634D01*
X0259527Y0019572D01*
X0259377Y0019514D01*
X0259226Y0019459D01*
X0259073Y0019408D01*
X0258919Y0019361D01*
X0258764Y0019318D01*
X0258608Y0019279D01*
X0258452Y0019243D01*
X0258294Y0019212D01*
X0258136Y0019184D01*
X0257977Y0019160D01*
X0257817Y0019140D01*
X0257657Y0019124D01*
X0257497Y0019112D01*
X0257336Y0019104D01*
X0257175Y0019100D01*
X0257015Y0019100D01*
X0256854Y0019104D01*
X0256693Y0019112D01*
X0256533Y0019124D01*
X0256373Y0019140D01*
X0256213Y0019160D01*
X0256054Y0019184D01*
X0255896Y0019212D01*
X0255738Y0019243D01*
X0255582Y0019279D01*
X0255426Y0019318D01*
X0255271Y0019361D01*
X0255117Y0019408D01*
X0254964Y0019459D01*
X0254813Y0019514D01*
X0254663Y0019572D01*
X0254515Y0019634D01*
X0254368Y0019700D01*
X0254223Y0019769D01*
X0254080Y0019842D01*
X0253938Y0019918D01*
X0253799Y0019998D01*
X0253661Y0020081D01*
X0253526Y0020168D01*
X0253392Y0020258D01*
X0253261Y0020351D01*
X0253133Y0020447D01*
X0253007Y0020547D01*
X0252883Y0020650D01*
X0252762Y0020755D01*
X0252643Y0020864D01*
X0252527Y0020975D01*
X0252414Y0021090D01*
X0252304Y0021207D01*
X0252197Y0021327D01*
X0252093Y0021449D01*
X0251992Y0021574D01*
X0251894Y0021702D01*
X0251799Y0021832D01*
X0251707Y0021964D01*
X0251619Y0022098D01*
X0251534Y0022235D01*
X0251452Y0022373D01*
X0251374Y0022514D01*
X0251300Y0022656D01*
X0251229Y0022800D01*
X0251161Y0022946D01*
X0251098Y0023094D01*
X0251037Y0023243D01*
X0250981Y0023394D01*
X0250928Y0023546D01*
X0250879Y0023699D01*
X0250834Y0023853D01*
X0250793Y0024008D01*
X0250755Y0024165D01*
X0250722Y0024322D01*
X0250692Y0024480D01*
X0250666Y0024639D01*
X0250645Y0024798D01*
X0250627Y0024958D01*
X0250613Y0025118D01*
X0250603Y0025279D01*
X0250597Y0025439D01*
X0250595Y0025600D01*
X0105345Y0043100D02*
X0105349Y0043419D01*
X0105361Y0043738D01*
X0105380Y0044056D01*
X0105408Y0044374D01*
X0105443Y0044691D01*
X0105486Y0045007D01*
X0105536Y0045323D01*
X0105595Y0045636D01*
X0105661Y0045948D01*
X0105735Y0046259D01*
X0105816Y0046567D01*
X0105905Y0046874D01*
X0106001Y0047178D01*
X0106105Y0047480D01*
X0106216Y0047779D01*
X0106335Y0048075D01*
X0106460Y0048368D01*
X0106593Y0048658D01*
X0106733Y0048945D01*
X0106880Y0049228D01*
X0107034Y0049508D01*
X0107195Y0049783D01*
X0107362Y0050055D01*
X0107536Y0050322D01*
X0107716Y0050586D01*
X0107903Y0050844D01*
X0108096Y0051098D01*
X0108296Y0051347D01*
X0108501Y0051591D01*
X0108713Y0051830D01*
X0108930Y0052064D01*
X0109153Y0052292D01*
X0109381Y0052515D01*
X0109615Y0052732D01*
X0109854Y0052944D01*
X0110098Y0053149D01*
X0110347Y0053349D01*
X0110601Y0053542D01*
X0110859Y0053729D01*
X0111123Y0053909D01*
X0111390Y0054083D01*
X0111662Y0054250D01*
X0111937Y0054411D01*
X0112217Y0054565D01*
X0112500Y0054712D01*
X0112787Y0054852D01*
X0113077Y0054985D01*
X0113370Y0055110D01*
X0113666Y0055229D01*
X0113965Y0055340D01*
X0114267Y0055444D01*
X0114571Y0055540D01*
X0114878Y0055629D01*
X0115186Y0055710D01*
X0115497Y0055784D01*
X0115809Y0055850D01*
X0116122Y0055909D01*
X0116438Y0055959D01*
X0116754Y0056002D01*
X0117071Y0056037D01*
X0117389Y0056065D01*
X0117707Y0056084D01*
X0118026Y0056096D01*
X0118345Y0056100D01*
X0118664Y0056096D01*
X0118983Y0056084D01*
X0119301Y0056065D01*
X0119619Y0056037D01*
X0119936Y0056002D01*
X0120252Y0055959D01*
X0120568Y0055909D01*
X0120881Y0055850D01*
X0121193Y0055784D01*
X0121504Y0055710D01*
X0121812Y0055629D01*
X0122119Y0055540D01*
X0122423Y0055444D01*
X0122725Y0055340D01*
X0123024Y0055229D01*
X0123320Y0055110D01*
X0123613Y0054985D01*
X0123903Y0054852D01*
X0124190Y0054712D01*
X0124473Y0054565D01*
X0124753Y0054411D01*
X0125028Y0054250D01*
X0125300Y0054083D01*
X0125567Y0053909D01*
X0125831Y0053729D01*
X0126089Y0053542D01*
X0126343Y0053349D01*
X0126592Y0053149D01*
X0126836Y0052944D01*
X0127075Y0052732D01*
X0127309Y0052515D01*
X0127537Y0052292D01*
X0127760Y0052064D01*
X0127977Y0051830D01*
X0128189Y0051591D01*
X0128394Y0051347D01*
X0128594Y0051098D01*
X0128787Y0050844D01*
X0128974Y0050586D01*
X0129154Y0050322D01*
X0129328Y0050055D01*
X0129495Y0049783D01*
X0129656Y0049508D01*
X0129810Y0049228D01*
X0129957Y0048945D01*
X0130097Y0048658D01*
X0130230Y0048368D01*
X0130355Y0048075D01*
X0130474Y0047779D01*
X0130585Y0047480D01*
X0130689Y0047178D01*
X0130785Y0046874D01*
X0130874Y0046567D01*
X0130955Y0046259D01*
X0131029Y0045948D01*
X0131095Y0045636D01*
X0131154Y0045323D01*
X0131204Y0045007D01*
X0131247Y0044691D01*
X0131282Y0044374D01*
X0131310Y0044056D01*
X0131329Y0043738D01*
X0131341Y0043419D01*
X0131345Y0043100D01*
X0131341Y0042781D01*
X0131329Y0042462D01*
X0131310Y0042144D01*
X0131282Y0041826D01*
X0131247Y0041509D01*
X0131204Y0041193D01*
X0131154Y0040877D01*
X0131095Y0040564D01*
X0131029Y0040252D01*
X0130955Y0039941D01*
X0130874Y0039633D01*
X0130785Y0039326D01*
X0130689Y0039022D01*
X0130585Y0038720D01*
X0130474Y0038421D01*
X0130355Y0038125D01*
X0130230Y0037832D01*
X0130097Y0037542D01*
X0129957Y0037255D01*
X0129810Y0036972D01*
X0129656Y0036692D01*
X0129495Y0036417D01*
X0129328Y0036145D01*
X0129154Y0035878D01*
X0128974Y0035614D01*
X0128787Y0035356D01*
X0128594Y0035102D01*
X0128394Y0034853D01*
X0128189Y0034609D01*
X0127977Y0034370D01*
X0127760Y0034136D01*
X0127537Y0033908D01*
X0127309Y0033685D01*
X0127075Y0033468D01*
X0126836Y0033256D01*
X0126592Y0033051D01*
X0126343Y0032851D01*
X0126089Y0032658D01*
X0125831Y0032471D01*
X0125567Y0032291D01*
X0125300Y0032117D01*
X0125028Y0031950D01*
X0124753Y0031789D01*
X0124473Y0031635D01*
X0124190Y0031488D01*
X0123903Y0031348D01*
X0123613Y0031215D01*
X0123320Y0031090D01*
X0123024Y0030971D01*
X0122725Y0030860D01*
X0122423Y0030756D01*
X0122119Y0030660D01*
X0121812Y0030571D01*
X0121504Y0030490D01*
X0121193Y0030416D01*
X0120881Y0030350D01*
X0120568Y0030291D01*
X0120252Y0030241D01*
X0119936Y0030198D01*
X0119619Y0030163D01*
X0119301Y0030135D01*
X0118983Y0030116D01*
X0118664Y0030104D01*
X0118345Y0030100D01*
X0118026Y0030104D01*
X0117707Y0030116D01*
X0117389Y0030135D01*
X0117071Y0030163D01*
X0116754Y0030198D01*
X0116438Y0030241D01*
X0116122Y0030291D01*
X0115809Y0030350D01*
X0115497Y0030416D01*
X0115186Y0030490D01*
X0114878Y0030571D01*
X0114571Y0030660D01*
X0114267Y0030756D01*
X0113965Y0030860D01*
X0113666Y0030971D01*
X0113370Y0031090D01*
X0113077Y0031215D01*
X0112787Y0031348D01*
X0112500Y0031488D01*
X0112217Y0031635D01*
X0111937Y0031789D01*
X0111662Y0031950D01*
X0111390Y0032117D01*
X0111123Y0032291D01*
X0110859Y0032471D01*
X0110601Y0032658D01*
X0110347Y0032851D01*
X0110098Y0033051D01*
X0109854Y0033256D01*
X0109615Y0033468D01*
X0109381Y0033685D01*
X0109153Y0033908D01*
X0108930Y0034136D01*
X0108713Y0034370D01*
X0108501Y0034609D01*
X0108296Y0034853D01*
X0108096Y0035102D01*
X0107903Y0035356D01*
X0107716Y0035614D01*
X0107536Y0035878D01*
X0107362Y0036145D01*
X0107195Y0036417D01*
X0107034Y0036692D01*
X0106880Y0036972D01*
X0106733Y0037255D01*
X0106593Y0037542D01*
X0106460Y0037832D01*
X0106335Y0038125D01*
X0106216Y0038421D01*
X0106105Y0038720D01*
X0106001Y0039022D01*
X0105905Y0039326D01*
X0105816Y0039633D01*
X0105735Y0039941D01*
X0105661Y0040252D01*
X0105595Y0040564D01*
X0105536Y0040877D01*
X0105486Y0041193D01*
X0105443Y0041509D01*
X0105408Y0041826D01*
X0105380Y0042144D01*
X0105361Y0042462D01*
X0105349Y0042781D01*
X0105345Y0043100D01*
X0074595Y0035100D02*
X0074597Y0035261D01*
X0074603Y0035421D01*
X0074613Y0035582D01*
X0074627Y0035742D01*
X0074645Y0035902D01*
X0074666Y0036061D01*
X0074692Y0036220D01*
X0074722Y0036378D01*
X0074755Y0036535D01*
X0074793Y0036692D01*
X0074834Y0036847D01*
X0074879Y0037001D01*
X0074928Y0037154D01*
X0074981Y0037306D01*
X0075037Y0037457D01*
X0075098Y0037606D01*
X0075161Y0037754D01*
X0075229Y0037900D01*
X0075300Y0038044D01*
X0075374Y0038186D01*
X0075452Y0038327D01*
X0075534Y0038465D01*
X0075619Y0038602D01*
X0075707Y0038736D01*
X0075799Y0038868D01*
X0075894Y0038998D01*
X0075992Y0039126D01*
X0076093Y0039251D01*
X0076197Y0039373D01*
X0076304Y0039493D01*
X0076414Y0039610D01*
X0076527Y0039725D01*
X0076643Y0039836D01*
X0076762Y0039945D01*
X0076883Y0040050D01*
X0077007Y0040153D01*
X0077133Y0040253D01*
X0077261Y0040349D01*
X0077392Y0040442D01*
X0077526Y0040532D01*
X0077661Y0040619D01*
X0077799Y0040702D01*
X0077938Y0040782D01*
X0078080Y0040858D01*
X0078223Y0040931D01*
X0078368Y0041000D01*
X0078515Y0041066D01*
X0078663Y0041128D01*
X0078813Y0041186D01*
X0078964Y0041241D01*
X0079117Y0041292D01*
X0079271Y0041339D01*
X0079426Y0041382D01*
X0079582Y0041421D01*
X0079738Y0041457D01*
X0079896Y0041488D01*
X0080054Y0041516D01*
X0080213Y0041540D01*
X0080373Y0041560D01*
X0080533Y0041576D01*
X0080693Y0041588D01*
X0080854Y0041596D01*
X0081015Y0041600D01*
X0081175Y0041600D01*
X0081336Y0041596D01*
X0081497Y0041588D01*
X0081657Y0041576D01*
X0081817Y0041560D01*
X0081977Y0041540D01*
X0082136Y0041516D01*
X0082294Y0041488D01*
X0082452Y0041457D01*
X0082608Y0041421D01*
X0082764Y0041382D01*
X0082919Y0041339D01*
X0083073Y0041292D01*
X0083226Y0041241D01*
X0083377Y0041186D01*
X0083527Y0041128D01*
X0083675Y0041066D01*
X0083822Y0041000D01*
X0083967Y0040931D01*
X0084110Y0040858D01*
X0084252Y0040782D01*
X0084391Y0040702D01*
X0084529Y0040619D01*
X0084664Y0040532D01*
X0084798Y0040442D01*
X0084929Y0040349D01*
X0085057Y0040253D01*
X0085183Y0040153D01*
X0085307Y0040050D01*
X0085428Y0039945D01*
X0085547Y0039836D01*
X0085663Y0039725D01*
X0085776Y0039610D01*
X0085886Y0039493D01*
X0085993Y0039373D01*
X0086097Y0039251D01*
X0086198Y0039126D01*
X0086296Y0038998D01*
X0086391Y0038868D01*
X0086483Y0038736D01*
X0086571Y0038602D01*
X0086656Y0038465D01*
X0086738Y0038327D01*
X0086816Y0038186D01*
X0086890Y0038044D01*
X0086961Y0037900D01*
X0087029Y0037754D01*
X0087092Y0037606D01*
X0087153Y0037457D01*
X0087209Y0037306D01*
X0087262Y0037154D01*
X0087311Y0037001D01*
X0087356Y0036847D01*
X0087397Y0036692D01*
X0087435Y0036535D01*
X0087468Y0036378D01*
X0087498Y0036220D01*
X0087524Y0036061D01*
X0087545Y0035902D01*
X0087563Y0035742D01*
X0087577Y0035582D01*
X0087587Y0035421D01*
X0087593Y0035261D01*
X0087595Y0035100D01*
X0087593Y0034939D01*
X0087587Y0034779D01*
X0087577Y0034618D01*
X0087563Y0034458D01*
X0087545Y0034298D01*
X0087524Y0034139D01*
X0087498Y0033980D01*
X0087468Y0033822D01*
X0087435Y0033665D01*
X0087397Y0033508D01*
X0087356Y0033353D01*
X0087311Y0033199D01*
X0087262Y0033046D01*
X0087209Y0032894D01*
X0087153Y0032743D01*
X0087092Y0032594D01*
X0087029Y0032446D01*
X0086961Y0032300D01*
X0086890Y0032156D01*
X0086816Y0032014D01*
X0086738Y0031873D01*
X0086656Y0031735D01*
X0086571Y0031598D01*
X0086483Y0031464D01*
X0086391Y0031332D01*
X0086296Y0031202D01*
X0086198Y0031074D01*
X0086097Y0030949D01*
X0085993Y0030827D01*
X0085886Y0030707D01*
X0085776Y0030590D01*
X0085663Y0030475D01*
X0085547Y0030364D01*
X0085428Y0030255D01*
X0085307Y0030150D01*
X0085183Y0030047D01*
X0085057Y0029947D01*
X0084929Y0029851D01*
X0084798Y0029758D01*
X0084664Y0029668D01*
X0084529Y0029581D01*
X0084391Y0029498D01*
X0084252Y0029418D01*
X0084110Y0029342D01*
X0083967Y0029269D01*
X0083822Y0029200D01*
X0083675Y0029134D01*
X0083527Y0029072D01*
X0083377Y0029014D01*
X0083226Y0028959D01*
X0083073Y0028908D01*
X0082919Y0028861D01*
X0082764Y0028818D01*
X0082608Y0028779D01*
X0082452Y0028743D01*
X0082294Y0028712D01*
X0082136Y0028684D01*
X0081977Y0028660D01*
X0081817Y0028640D01*
X0081657Y0028624D01*
X0081497Y0028612D01*
X0081336Y0028604D01*
X0081175Y0028600D01*
X0081015Y0028600D01*
X0080854Y0028604D01*
X0080693Y0028612D01*
X0080533Y0028624D01*
X0080373Y0028640D01*
X0080213Y0028660D01*
X0080054Y0028684D01*
X0079896Y0028712D01*
X0079738Y0028743D01*
X0079582Y0028779D01*
X0079426Y0028818D01*
X0079271Y0028861D01*
X0079117Y0028908D01*
X0078964Y0028959D01*
X0078813Y0029014D01*
X0078663Y0029072D01*
X0078515Y0029134D01*
X0078368Y0029200D01*
X0078223Y0029269D01*
X0078080Y0029342D01*
X0077938Y0029418D01*
X0077799Y0029498D01*
X0077661Y0029581D01*
X0077526Y0029668D01*
X0077392Y0029758D01*
X0077261Y0029851D01*
X0077133Y0029947D01*
X0077007Y0030047D01*
X0076883Y0030150D01*
X0076762Y0030255D01*
X0076643Y0030364D01*
X0076527Y0030475D01*
X0076414Y0030590D01*
X0076304Y0030707D01*
X0076197Y0030827D01*
X0076093Y0030949D01*
X0075992Y0031074D01*
X0075894Y0031202D01*
X0075799Y0031332D01*
X0075707Y0031464D01*
X0075619Y0031598D01*
X0075534Y0031735D01*
X0075452Y0031873D01*
X0075374Y0032014D01*
X0075300Y0032156D01*
X0075229Y0032300D01*
X0075161Y0032446D01*
X0075098Y0032594D01*
X0075037Y0032743D01*
X0074981Y0032894D01*
X0074928Y0033046D01*
X0074879Y0033199D01*
X0074834Y0033353D01*
X0074793Y0033508D01*
X0074755Y0033665D01*
X0074722Y0033822D01*
X0074692Y0033980D01*
X0074666Y0034139D01*
X0074645Y0034298D01*
X0074627Y0034458D01*
X0074613Y0034618D01*
X0074603Y0034779D01*
X0074597Y0034939D01*
X0074595Y0035100D01*
X0115345Y0110350D02*
X0115347Y0110498D01*
X0115353Y0110646D01*
X0115363Y0110794D01*
X0115377Y0110942D01*
X0115395Y0111089D01*
X0115417Y0111236D01*
X0115443Y0111382D01*
X0115472Y0111527D01*
X0115506Y0111672D01*
X0115544Y0111815D01*
X0115585Y0111958D01*
X0115630Y0112099D01*
X0115680Y0112239D01*
X0115732Y0112377D01*
X0115789Y0112515D01*
X0115849Y0112650D01*
X0115913Y0112784D01*
X0115980Y0112916D01*
X0116051Y0113046D01*
X0116126Y0113175D01*
X0116204Y0113301D01*
X0116285Y0113425D01*
X0116369Y0113547D01*
X0116457Y0113666D01*
X0116548Y0113783D01*
X0116642Y0113898D01*
X0116740Y0114010D01*
X0116840Y0114119D01*
X0116943Y0114226D01*
X0117049Y0114330D01*
X0117157Y0114431D01*
X0117269Y0114529D01*
X0117383Y0114624D01*
X0117499Y0114715D01*
X0117618Y0114804D01*
X0117739Y0114889D01*
X0117863Y0114971D01*
X0117989Y0115050D01*
X0118116Y0115125D01*
X0118246Y0115197D01*
X0118378Y0115266D01*
X0118511Y0115330D01*
X0118646Y0115391D01*
X0118783Y0115449D01*
X0118921Y0115503D01*
X0119061Y0115553D01*
X0119202Y0115599D01*
X0119344Y0115641D01*
X0119487Y0115680D01*
X0119631Y0115714D01*
X0119777Y0115745D01*
X0119922Y0115772D01*
X0120069Y0115795D01*
X0120216Y0115814D01*
X0120364Y0115829D01*
X0120511Y0115840D01*
X0120660Y0115847D01*
X0120808Y0115850D01*
X0120956Y0115849D01*
X0121104Y0115844D01*
X0121252Y0115835D01*
X0121400Y0115822D01*
X0121548Y0115805D01*
X0121694Y0115784D01*
X0121841Y0115759D01*
X0121986Y0115730D01*
X0122131Y0115698D01*
X0122274Y0115661D01*
X0122417Y0115621D01*
X0122559Y0115576D01*
X0122699Y0115528D01*
X0122838Y0115476D01*
X0122975Y0115421D01*
X0123111Y0115361D01*
X0123246Y0115298D01*
X0123378Y0115232D01*
X0123509Y0115162D01*
X0123638Y0115088D01*
X0123764Y0115011D01*
X0123889Y0114931D01*
X0124011Y0114847D01*
X0124132Y0114760D01*
X0124249Y0114670D01*
X0124365Y0114576D01*
X0124477Y0114480D01*
X0124587Y0114381D01*
X0124695Y0114278D01*
X0124799Y0114173D01*
X0124901Y0114065D01*
X0124999Y0113954D01*
X0125095Y0113841D01*
X0125188Y0113725D01*
X0125277Y0113607D01*
X0125363Y0113486D01*
X0125446Y0113363D01*
X0125526Y0113238D01*
X0125602Y0113111D01*
X0125675Y0112981D01*
X0125744Y0112850D01*
X0125809Y0112717D01*
X0125872Y0112583D01*
X0125930Y0112446D01*
X0125985Y0112308D01*
X0126035Y0112169D01*
X0126083Y0112028D01*
X0126126Y0111887D01*
X0126166Y0111744D01*
X0126201Y0111600D01*
X0126233Y0111455D01*
X0126261Y0111309D01*
X0126285Y0111163D01*
X0126305Y0111016D01*
X0126321Y0110868D01*
X0126333Y0110721D01*
X0126341Y0110572D01*
X0126345Y0110424D01*
X0126345Y0110276D01*
X0126341Y0110128D01*
X0126333Y0109979D01*
X0126321Y0109832D01*
X0126305Y0109684D01*
X0126285Y0109537D01*
X0126261Y0109391D01*
X0126233Y0109245D01*
X0126201Y0109100D01*
X0126166Y0108956D01*
X0126126Y0108813D01*
X0126083Y0108672D01*
X0126035Y0108531D01*
X0125985Y0108392D01*
X0125930Y0108254D01*
X0125872Y0108117D01*
X0125809Y0107983D01*
X0125744Y0107850D01*
X0125675Y0107719D01*
X0125602Y0107589D01*
X0125526Y0107462D01*
X0125446Y0107337D01*
X0125363Y0107214D01*
X0125277Y0107093D01*
X0125188Y0106975D01*
X0125095Y0106859D01*
X0124999Y0106746D01*
X0124901Y0106635D01*
X0124799Y0106527D01*
X0124695Y0106422D01*
X0124587Y0106319D01*
X0124477Y0106220D01*
X0124365Y0106124D01*
X0124249Y0106030D01*
X0124132Y0105940D01*
X0124011Y0105853D01*
X0123889Y0105769D01*
X0123764Y0105689D01*
X0123638Y0105612D01*
X0123509Y0105538D01*
X0123378Y0105468D01*
X0123246Y0105402D01*
X0123111Y0105339D01*
X0122975Y0105279D01*
X0122838Y0105224D01*
X0122699Y0105172D01*
X0122559Y0105124D01*
X0122417Y0105079D01*
X0122274Y0105039D01*
X0122131Y0105002D01*
X0121986Y0104970D01*
X0121841Y0104941D01*
X0121694Y0104916D01*
X0121548Y0104895D01*
X0121400Y0104878D01*
X0121252Y0104865D01*
X0121104Y0104856D01*
X0120956Y0104851D01*
X0120808Y0104850D01*
X0120660Y0104853D01*
X0120511Y0104860D01*
X0120364Y0104871D01*
X0120216Y0104886D01*
X0120069Y0104905D01*
X0119922Y0104928D01*
X0119777Y0104955D01*
X0119631Y0104986D01*
X0119487Y0105020D01*
X0119344Y0105059D01*
X0119202Y0105101D01*
X0119061Y0105147D01*
X0118921Y0105197D01*
X0118783Y0105251D01*
X0118646Y0105309D01*
X0118511Y0105370D01*
X0118378Y0105434D01*
X0118246Y0105503D01*
X0118116Y0105575D01*
X0117989Y0105650D01*
X0117863Y0105729D01*
X0117739Y0105811D01*
X0117618Y0105896D01*
X0117499Y0105985D01*
X0117383Y0106076D01*
X0117269Y0106171D01*
X0117157Y0106269D01*
X0117049Y0106370D01*
X0116943Y0106474D01*
X0116840Y0106581D01*
X0116740Y0106690D01*
X0116642Y0106802D01*
X0116548Y0106917D01*
X0116457Y0107034D01*
X0116369Y0107153D01*
X0116285Y0107275D01*
X0116204Y0107399D01*
X0116126Y0107525D01*
X0116051Y0107654D01*
X0115980Y0107784D01*
X0115913Y0107916D01*
X0115849Y0108050D01*
X0115789Y0108185D01*
X0115732Y0108323D01*
X0115680Y0108461D01*
X0115630Y0108601D01*
X0115585Y0108742D01*
X0115544Y0108885D01*
X0115506Y0109028D01*
X0115472Y0109173D01*
X0115443Y0109318D01*
X0115417Y0109464D01*
X0115395Y0109611D01*
X0115377Y0109758D01*
X0115363Y0109906D01*
X0115353Y0110054D01*
X0115347Y0110202D01*
X0115345Y0110350D01*
X0115345Y0212549D02*
X0115347Y0212697D01*
X0115353Y0212845D01*
X0115363Y0212993D01*
X0115377Y0213141D01*
X0115395Y0213288D01*
X0115417Y0213435D01*
X0115443Y0213581D01*
X0115472Y0213726D01*
X0115506Y0213871D01*
X0115544Y0214014D01*
X0115585Y0214157D01*
X0115630Y0214298D01*
X0115680Y0214438D01*
X0115732Y0214576D01*
X0115789Y0214714D01*
X0115849Y0214849D01*
X0115913Y0214983D01*
X0115980Y0215115D01*
X0116051Y0215245D01*
X0116126Y0215374D01*
X0116204Y0215500D01*
X0116285Y0215624D01*
X0116369Y0215746D01*
X0116457Y0215865D01*
X0116548Y0215982D01*
X0116642Y0216097D01*
X0116740Y0216209D01*
X0116840Y0216318D01*
X0116943Y0216425D01*
X0117049Y0216529D01*
X0117157Y0216630D01*
X0117269Y0216728D01*
X0117383Y0216823D01*
X0117499Y0216914D01*
X0117618Y0217003D01*
X0117739Y0217088D01*
X0117863Y0217170D01*
X0117989Y0217249D01*
X0118116Y0217324D01*
X0118246Y0217396D01*
X0118378Y0217465D01*
X0118511Y0217529D01*
X0118646Y0217590D01*
X0118783Y0217648D01*
X0118921Y0217702D01*
X0119061Y0217752D01*
X0119202Y0217798D01*
X0119344Y0217840D01*
X0119487Y0217879D01*
X0119631Y0217913D01*
X0119777Y0217944D01*
X0119922Y0217971D01*
X0120069Y0217994D01*
X0120216Y0218013D01*
X0120364Y0218028D01*
X0120511Y0218039D01*
X0120660Y0218046D01*
X0120808Y0218049D01*
X0120956Y0218048D01*
X0121104Y0218043D01*
X0121252Y0218034D01*
X0121400Y0218021D01*
X0121548Y0218004D01*
X0121694Y0217983D01*
X0121841Y0217958D01*
X0121986Y0217929D01*
X0122131Y0217897D01*
X0122274Y0217860D01*
X0122417Y0217820D01*
X0122559Y0217775D01*
X0122699Y0217727D01*
X0122838Y0217675D01*
X0122975Y0217620D01*
X0123111Y0217560D01*
X0123246Y0217497D01*
X0123378Y0217431D01*
X0123509Y0217361D01*
X0123638Y0217287D01*
X0123764Y0217210D01*
X0123889Y0217130D01*
X0124011Y0217046D01*
X0124132Y0216959D01*
X0124249Y0216869D01*
X0124365Y0216775D01*
X0124477Y0216679D01*
X0124587Y0216580D01*
X0124695Y0216477D01*
X0124799Y0216372D01*
X0124901Y0216264D01*
X0124999Y0216153D01*
X0125095Y0216040D01*
X0125188Y0215924D01*
X0125277Y0215806D01*
X0125363Y0215685D01*
X0125446Y0215562D01*
X0125526Y0215437D01*
X0125602Y0215310D01*
X0125675Y0215180D01*
X0125744Y0215049D01*
X0125809Y0214916D01*
X0125872Y0214782D01*
X0125930Y0214645D01*
X0125985Y0214507D01*
X0126035Y0214368D01*
X0126083Y0214227D01*
X0126126Y0214086D01*
X0126166Y0213943D01*
X0126201Y0213799D01*
X0126233Y0213654D01*
X0126261Y0213508D01*
X0126285Y0213362D01*
X0126305Y0213215D01*
X0126321Y0213067D01*
X0126333Y0212920D01*
X0126341Y0212771D01*
X0126345Y0212623D01*
X0126345Y0212475D01*
X0126341Y0212327D01*
X0126333Y0212178D01*
X0126321Y0212031D01*
X0126305Y0211883D01*
X0126285Y0211736D01*
X0126261Y0211590D01*
X0126233Y0211444D01*
X0126201Y0211299D01*
X0126166Y0211155D01*
X0126126Y0211012D01*
X0126083Y0210871D01*
X0126035Y0210730D01*
X0125985Y0210591D01*
X0125930Y0210453D01*
X0125872Y0210316D01*
X0125809Y0210182D01*
X0125744Y0210049D01*
X0125675Y0209918D01*
X0125602Y0209788D01*
X0125526Y0209661D01*
X0125446Y0209536D01*
X0125363Y0209413D01*
X0125277Y0209292D01*
X0125188Y0209174D01*
X0125095Y0209058D01*
X0124999Y0208945D01*
X0124901Y0208834D01*
X0124799Y0208726D01*
X0124695Y0208621D01*
X0124587Y0208518D01*
X0124477Y0208419D01*
X0124365Y0208323D01*
X0124249Y0208229D01*
X0124132Y0208139D01*
X0124011Y0208052D01*
X0123889Y0207968D01*
X0123764Y0207888D01*
X0123638Y0207811D01*
X0123509Y0207737D01*
X0123378Y0207667D01*
X0123246Y0207601D01*
X0123111Y0207538D01*
X0122975Y0207478D01*
X0122838Y0207423D01*
X0122699Y0207371D01*
X0122559Y0207323D01*
X0122417Y0207278D01*
X0122274Y0207238D01*
X0122131Y0207201D01*
X0121986Y0207169D01*
X0121841Y0207140D01*
X0121694Y0207115D01*
X0121548Y0207094D01*
X0121400Y0207077D01*
X0121252Y0207064D01*
X0121104Y0207055D01*
X0120956Y0207050D01*
X0120808Y0207049D01*
X0120660Y0207052D01*
X0120511Y0207059D01*
X0120364Y0207070D01*
X0120216Y0207085D01*
X0120069Y0207104D01*
X0119922Y0207127D01*
X0119777Y0207154D01*
X0119631Y0207185D01*
X0119487Y0207219D01*
X0119344Y0207258D01*
X0119202Y0207300D01*
X0119061Y0207346D01*
X0118921Y0207396D01*
X0118783Y0207450D01*
X0118646Y0207508D01*
X0118511Y0207569D01*
X0118378Y0207633D01*
X0118246Y0207702D01*
X0118116Y0207774D01*
X0117989Y0207849D01*
X0117863Y0207928D01*
X0117739Y0208010D01*
X0117618Y0208095D01*
X0117499Y0208184D01*
X0117383Y0208275D01*
X0117269Y0208370D01*
X0117157Y0208468D01*
X0117049Y0208569D01*
X0116943Y0208673D01*
X0116840Y0208780D01*
X0116740Y0208889D01*
X0116642Y0209001D01*
X0116548Y0209116D01*
X0116457Y0209233D01*
X0116369Y0209352D01*
X0116285Y0209474D01*
X0116204Y0209598D01*
X0116126Y0209724D01*
X0116051Y0209853D01*
X0115980Y0209983D01*
X0115913Y0210115D01*
X0115849Y0210249D01*
X0115789Y0210384D01*
X0115732Y0210522D01*
X0115680Y0210660D01*
X0115630Y0210800D01*
X0115585Y0210941D01*
X0115544Y0211084D01*
X0115506Y0211227D01*
X0115472Y0211372D01*
X0115443Y0211517D01*
X0115417Y0211663D01*
X0115395Y0211810D01*
X0115377Y0211957D01*
X0115363Y0212105D01*
X0115353Y0212253D01*
X0115347Y0212401D01*
X0115345Y0212549D01*
X0115345Y0303100D02*
X0115347Y0303248D01*
X0115353Y0303396D01*
X0115363Y0303544D01*
X0115377Y0303692D01*
X0115395Y0303839D01*
X0115417Y0303986D01*
X0115443Y0304132D01*
X0115472Y0304277D01*
X0115506Y0304422D01*
X0115544Y0304565D01*
X0115585Y0304708D01*
X0115630Y0304849D01*
X0115680Y0304989D01*
X0115732Y0305127D01*
X0115789Y0305265D01*
X0115849Y0305400D01*
X0115913Y0305534D01*
X0115980Y0305666D01*
X0116051Y0305796D01*
X0116126Y0305925D01*
X0116204Y0306051D01*
X0116285Y0306175D01*
X0116369Y0306297D01*
X0116457Y0306416D01*
X0116548Y0306533D01*
X0116642Y0306648D01*
X0116740Y0306760D01*
X0116840Y0306869D01*
X0116943Y0306976D01*
X0117049Y0307080D01*
X0117157Y0307181D01*
X0117269Y0307279D01*
X0117383Y0307374D01*
X0117499Y0307465D01*
X0117618Y0307554D01*
X0117739Y0307639D01*
X0117863Y0307721D01*
X0117989Y0307800D01*
X0118116Y0307875D01*
X0118246Y0307947D01*
X0118378Y0308016D01*
X0118511Y0308080D01*
X0118646Y0308141D01*
X0118783Y0308199D01*
X0118921Y0308253D01*
X0119061Y0308303D01*
X0119202Y0308349D01*
X0119344Y0308391D01*
X0119487Y0308430D01*
X0119631Y0308464D01*
X0119777Y0308495D01*
X0119922Y0308522D01*
X0120069Y0308545D01*
X0120216Y0308564D01*
X0120364Y0308579D01*
X0120511Y0308590D01*
X0120660Y0308597D01*
X0120808Y0308600D01*
X0120956Y0308599D01*
X0121104Y0308594D01*
X0121252Y0308585D01*
X0121400Y0308572D01*
X0121548Y0308555D01*
X0121694Y0308534D01*
X0121841Y0308509D01*
X0121986Y0308480D01*
X0122131Y0308448D01*
X0122274Y0308411D01*
X0122417Y0308371D01*
X0122559Y0308326D01*
X0122699Y0308278D01*
X0122838Y0308226D01*
X0122975Y0308171D01*
X0123111Y0308111D01*
X0123246Y0308048D01*
X0123378Y0307982D01*
X0123509Y0307912D01*
X0123638Y0307838D01*
X0123764Y0307761D01*
X0123889Y0307681D01*
X0124011Y0307597D01*
X0124132Y0307510D01*
X0124249Y0307420D01*
X0124365Y0307326D01*
X0124477Y0307230D01*
X0124587Y0307131D01*
X0124695Y0307028D01*
X0124799Y0306923D01*
X0124901Y0306815D01*
X0124999Y0306704D01*
X0125095Y0306591D01*
X0125188Y0306475D01*
X0125277Y0306357D01*
X0125363Y0306236D01*
X0125446Y0306113D01*
X0125526Y0305988D01*
X0125602Y0305861D01*
X0125675Y0305731D01*
X0125744Y0305600D01*
X0125809Y0305467D01*
X0125872Y0305333D01*
X0125930Y0305196D01*
X0125985Y0305058D01*
X0126035Y0304919D01*
X0126083Y0304778D01*
X0126126Y0304637D01*
X0126166Y0304494D01*
X0126201Y0304350D01*
X0126233Y0304205D01*
X0126261Y0304059D01*
X0126285Y0303913D01*
X0126305Y0303766D01*
X0126321Y0303618D01*
X0126333Y0303471D01*
X0126341Y0303322D01*
X0126345Y0303174D01*
X0126345Y0303026D01*
X0126341Y0302878D01*
X0126333Y0302729D01*
X0126321Y0302582D01*
X0126305Y0302434D01*
X0126285Y0302287D01*
X0126261Y0302141D01*
X0126233Y0301995D01*
X0126201Y0301850D01*
X0126166Y0301706D01*
X0126126Y0301563D01*
X0126083Y0301422D01*
X0126035Y0301281D01*
X0125985Y0301142D01*
X0125930Y0301004D01*
X0125872Y0300867D01*
X0125809Y0300733D01*
X0125744Y0300600D01*
X0125675Y0300469D01*
X0125602Y0300339D01*
X0125526Y0300212D01*
X0125446Y0300087D01*
X0125363Y0299964D01*
X0125277Y0299843D01*
X0125188Y0299725D01*
X0125095Y0299609D01*
X0124999Y0299496D01*
X0124901Y0299385D01*
X0124799Y0299277D01*
X0124695Y0299172D01*
X0124587Y0299069D01*
X0124477Y0298970D01*
X0124365Y0298874D01*
X0124249Y0298780D01*
X0124132Y0298690D01*
X0124011Y0298603D01*
X0123889Y0298519D01*
X0123764Y0298439D01*
X0123638Y0298362D01*
X0123509Y0298288D01*
X0123378Y0298218D01*
X0123246Y0298152D01*
X0123111Y0298089D01*
X0122975Y0298029D01*
X0122838Y0297974D01*
X0122699Y0297922D01*
X0122559Y0297874D01*
X0122417Y0297829D01*
X0122274Y0297789D01*
X0122131Y0297752D01*
X0121986Y0297720D01*
X0121841Y0297691D01*
X0121694Y0297666D01*
X0121548Y0297645D01*
X0121400Y0297628D01*
X0121252Y0297615D01*
X0121104Y0297606D01*
X0120956Y0297601D01*
X0120808Y0297600D01*
X0120660Y0297603D01*
X0120511Y0297610D01*
X0120364Y0297621D01*
X0120216Y0297636D01*
X0120069Y0297655D01*
X0119922Y0297678D01*
X0119777Y0297705D01*
X0119631Y0297736D01*
X0119487Y0297770D01*
X0119344Y0297809D01*
X0119202Y0297851D01*
X0119061Y0297897D01*
X0118921Y0297947D01*
X0118783Y0298001D01*
X0118646Y0298059D01*
X0118511Y0298120D01*
X0118378Y0298184D01*
X0118246Y0298253D01*
X0118116Y0298325D01*
X0117989Y0298400D01*
X0117863Y0298479D01*
X0117739Y0298561D01*
X0117618Y0298646D01*
X0117499Y0298735D01*
X0117383Y0298826D01*
X0117269Y0298921D01*
X0117157Y0299019D01*
X0117049Y0299120D01*
X0116943Y0299224D01*
X0116840Y0299331D01*
X0116740Y0299440D01*
X0116642Y0299552D01*
X0116548Y0299667D01*
X0116457Y0299784D01*
X0116369Y0299903D01*
X0116285Y0300025D01*
X0116204Y0300149D01*
X0116126Y0300275D01*
X0116051Y0300404D01*
X0115980Y0300534D01*
X0115913Y0300666D01*
X0115849Y0300800D01*
X0115789Y0300935D01*
X0115732Y0301073D01*
X0115680Y0301211D01*
X0115630Y0301351D01*
X0115585Y0301492D01*
X0115544Y0301635D01*
X0115506Y0301778D01*
X0115472Y0301923D01*
X0115443Y0302068D01*
X0115417Y0302214D01*
X0115395Y0302361D01*
X0115377Y0302508D01*
X0115363Y0302656D01*
X0115353Y0302804D01*
X0115347Y0302952D01*
X0115345Y0303100D01*
X0112689Y0370350D02*
X0112691Y0370503D01*
X0112697Y0370657D01*
X0112707Y0370810D01*
X0112721Y0370962D01*
X0112739Y0371115D01*
X0112761Y0371266D01*
X0112786Y0371417D01*
X0112816Y0371568D01*
X0112850Y0371718D01*
X0112887Y0371866D01*
X0112928Y0372014D01*
X0112973Y0372160D01*
X0113022Y0372306D01*
X0113075Y0372450D01*
X0113131Y0372592D01*
X0113191Y0372733D01*
X0113255Y0372873D01*
X0113322Y0373011D01*
X0113393Y0373147D01*
X0113468Y0373281D01*
X0113545Y0373413D01*
X0113627Y0373543D01*
X0113711Y0373671D01*
X0113799Y0373797D01*
X0113890Y0373920D01*
X0113984Y0374041D01*
X0114082Y0374159D01*
X0114182Y0374275D01*
X0114286Y0374388D01*
X0114392Y0374499D01*
X0114501Y0374607D01*
X0114613Y0374712D01*
X0114727Y0374813D01*
X0114845Y0374912D01*
X0114964Y0375008D01*
X0115086Y0375101D01*
X0115211Y0375190D01*
X0115338Y0375277D01*
X0115467Y0375359D01*
X0115598Y0375439D01*
X0115731Y0375515D01*
X0115866Y0375588D01*
X0116003Y0375657D01*
X0116142Y0375722D01*
X0116282Y0375784D01*
X0116424Y0375842D01*
X0116567Y0375897D01*
X0116712Y0375948D01*
X0116858Y0375995D01*
X0117005Y0376038D01*
X0117153Y0376077D01*
X0117302Y0376113D01*
X0117452Y0376144D01*
X0117603Y0376172D01*
X0117754Y0376196D01*
X0117907Y0376216D01*
X0118059Y0376232D01*
X0118212Y0376244D01*
X0118365Y0376252D01*
X0118518Y0376256D01*
X0118672Y0376256D01*
X0118825Y0376252D01*
X0118978Y0376244D01*
X0119131Y0376232D01*
X0119283Y0376216D01*
X0119436Y0376196D01*
X0119587Y0376172D01*
X0119738Y0376144D01*
X0119888Y0376113D01*
X0120037Y0376077D01*
X0120185Y0376038D01*
X0120332Y0375995D01*
X0120478Y0375948D01*
X0120623Y0375897D01*
X0120766Y0375842D01*
X0120908Y0375784D01*
X0121048Y0375722D01*
X0121187Y0375657D01*
X0121324Y0375588D01*
X0121459Y0375515D01*
X0121592Y0375439D01*
X0121723Y0375359D01*
X0121852Y0375277D01*
X0121979Y0375190D01*
X0122104Y0375101D01*
X0122226Y0375008D01*
X0122345Y0374912D01*
X0122463Y0374813D01*
X0122577Y0374712D01*
X0122689Y0374607D01*
X0122798Y0374499D01*
X0122904Y0374388D01*
X0123008Y0374275D01*
X0123108Y0374159D01*
X0123206Y0374041D01*
X0123300Y0373920D01*
X0123391Y0373797D01*
X0123479Y0373671D01*
X0123563Y0373543D01*
X0123645Y0373413D01*
X0123722Y0373281D01*
X0123797Y0373147D01*
X0123868Y0373011D01*
X0123935Y0372873D01*
X0123999Y0372733D01*
X0124059Y0372592D01*
X0124115Y0372450D01*
X0124168Y0372306D01*
X0124217Y0372160D01*
X0124262Y0372014D01*
X0124303Y0371866D01*
X0124340Y0371718D01*
X0124374Y0371568D01*
X0124404Y0371417D01*
X0124429Y0371266D01*
X0124451Y0371115D01*
X0124469Y0370962D01*
X0124483Y0370810D01*
X0124493Y0370657D01*
X0124499Y0370503D01*
X0124501Y0370350D01*
X0124499Y0370197D01*
X0124493Y0370043D01*
X0124483Y0369890D01*
X0124469Y0369738D01*
X0124451Y0369585D01*
X0124429Y0369434D01*
X0124404Y0369283D01*
X0124374Y0369132D01*
X0124340Y0368982D01*
X0124303Y0368834D01*
X0124262Y0368686D01*
X0124217Y0368540D01*
X0124168Y0368394D01*
X0124115Y0368250D01*
X0124059Y0368108D01*
X0123999Y0367967D01*
X0123935Y0367827D01*
X0123868Y0367689D01*
X0123797Y0367553D01*
X0123722Y0367419D01*
X0123645Y0367287D01*
X0123563Y0367157D01*
X0123479Y0367029D01*
X0123391Y0366903D01*
X0123300Y0366780D01*
X0123206Y0366659D01*
X0123108Y0366541D01*
X0123008Y0366425D01*
X0122904Y0366312D01*
X0122798Y0366201D01*
X0122689Y0366093D01*
X0122577Y0365988D01*
X0122463Y0365887D01*
X0122345Y0365788D01*
X0122226Y0365692D01*
X0122104Y0365599D01*
X0121979Y0365510D01*
X0121852Y0365423D01*
X0121723Y0365341D01*
X0121592Y0365261D01*
X0121459Y0365185D01*
X0121324Y0365112D01*
X0121187Y0365043D01*
X0121048Y0364978D01*
X0120908Y0364916D01*
X0120766Y0364858D01*
X0120623Y0364803D01*
X0120478Y0364752D01*
X0120332Y0364705D01*
X0120185Y0364662D01*
X0120037Y0364623D01*
X0119888Y0364587D01*
X0119738Y0364556D01*
X0119587Y0364528D01*
X0119436Y0364504D01*
X0119283Y0364484D01*
X0119131Y0364468D01*
X0118978Y0364456D01*
X0118825Y0364448D01*
X0118672Y0364444D01*
X0118518Y0364444D01*
X0118365Y0364448D01*
X0118212Y0364456D01*
X0118059Y0364468D01*
X0117907Y0364484D01*
X0117754Y0364504D01*
X0117603Y0364528D01*
X0117452Y0364556D01*
X0117302Y0364587D01*
X0117153Y0364623D01*
X0117005Y0364662D01*
X0116858Y0364705D01*
X0116712Y0364752D01*
X0116567Y0364803D01*
X0116424Y0364858D01*
X0116282Y0364916D01*
X0116142Y0364978D01*
X0116003Y0365043D01*
X0115866Y0365112D01*
X0115731Y0365185D01*
X0115598Y0365261D01*
X0115467Y0365341D01*
X0115338Y0365423D01*
X0115211Y0365510D01*
X0115086Y0365599D01*
X0114964Y0365692D01*
X0114845Y0365788D01*
X0114727Y0365887D01*
X0114613Y0365988D01*
X0114501Y0366093D01*
X0114392Y0366201D01*
X0114286Y0366312D01*
X0114182Y0366425D01*
X0114082Y0366541D01*
X0113984Y0366659D01*
X0113890Y0366780D01*
X0113799Y0366903D01*
X0113711Y0367029D01*
X0113627Y0367157D01*
X0113545Y0367287D01*
X0113468Y0367419D01*
X0113393Y0367553D01*
X0113322Y0367689D01*
X0113255Y0367827D01*
X0113191Y0367967D01*
X0113131Y0368108D01*
X0113075Y0368250D01*
X0113022Y0368394D01*
X0112973Y0368540D01*
X0112928Y0368686D01*
X0112887Y0368834D01*
X0112850Y0368982D01*
X0112816Y0369132D01*
X0112786Y0369283D01*
X0112761Y0369434D01*
X0112739Y0369585D01*
X0112721Y0369738D01*
X0112707Y0369890D01*
X0112697Y0370043D01*
X0112691Y0370197D01*
X0112689Y0370350D01*
X0112689Y0390350D02*
X0112691Y0390503D01*
X0112697Y0390657D01*
X0112707Y0390810D01*
X0112721Y0390962D01*
X0112739Y0391115D01*
X0112761Y0391266D01*
X0112786Y0391417D01*
X0112816Y0391568D01*
X0112850Y0391718D01*
X0112887Y0391866D01*
X0112928Y0392014D01*
X0112973Y0392160D01*
X0113022Y0392306D01*
X0113075Y0392450D01*
X0113131Y0392592D01*
X0113191Y0392733D01*
X0113255Y0392873D01*
X0113322Y0393011D01*
X0113393Y0393147D01*
X0113468Y0393281D01*
X0113545Y0393413D01*
X0113627Y0393543D01*
X0113711Y0393671D01*
X0113799Y0393797D01*
X0113890Y0393920D01*
X0113984Y0394041D01*
X0114082Y0394159D01*
X0114182Y0394275D01*
X0114286Y0394388D01*
X0114392Y0394499D01*
X0114501Y0394607D01*
X0114613Y0394712D01*
X0114727Y0394813D01*
X0114845Y0394912D01*
X0114964Y0395008D01*
X0115086Y0395101D01*
X0115211Y0395190D01*
X0115338Y0395277D01*
X0115467Y0395359D01*
X0115598Y0395439D01*
X0115731Y0395515D01*
X0115866Y0395588D01*
X0116003Y0395657D01*
X0116142Y0395722D01*
X0116282Y0395784D01*
X0116424Y0395842D01*
X0116567Y0395897D01*
X0116712Y0395948D01*
X0116858Y0395995D01*
X0117005Y0396038D01*
X0117153Y0396077D01*
X0117302Y0396113D01*
X0117452Y0396144D01*
X0117603Y0396172D01*
X0117754Y0396196D01*
X0117907Y0396216D01*
X0118059Y0396232D01*
X0118212Y0396244D01*
X0118365Y0396252D01*
X0118518Y0396256D01*
X0118672Y0396256D01*
X0118825Y0396252D01*
X0118978Y0396244D01*
X0119131Y0396232D01*
X0119283Y0396216D01*
X0119436Y0396196D01*
X0119587Y0396172D01*
X0119738Y0396144D01*
X0119888Y0396113D01*
X0120037Y0396077D01*
X0120185Y0396038D01*
X0120332Y0395995D01*
X0120478Y0395948D01*
X0120623Y0395897D01*
X0120766Y0395842D01*
X0120908Y0395784D01*
X0121048Y0395722D01*
X0121187Y0395657D01*
X0121324Y0395588D01*
X0121459Y0395515D01*
X0121592Y0395439D01*
X0121723Y0395359D01*
X0121852Y0395277D01*
X0121979Y0395190D01*
X0122104Y0395101D01*
X0122226Y0395008D01*
X0122345Y0394912D01*
X0122463Y0394813D01*
X0122577Y0394712D01*
X0122689Y0394607D01*
X0122798Y0394499D01*
X0122904Y0394388D01*
X0123008Y0394275D01*
X0123108Y0394159D01*
X0123206Y0394041D01*
X0123300Y0393920D01*
X0123391Y0393797D01*
X0123479Y0393671D01*
X0123563Y0393543D01*
X0123645Y0393413D01*
X0123722Y0393281D01*
X0123797Y0393147D01*
X0123868Y0393011D01*
X0123935Y0392873D01*
X0123999Y0392733D01*
X0124059Y0392592D01*
X0124115Y0392450D01*
X0124168Y0392306D01*
X0124217Y0392160D01*
X0124262Y0392014D01*
X0124303Y0391866D01*
X0124340Y0391718D01*
X0124374Y0391568D01*
X0124404Y0391417D01*
X0124429Y0391266D01*
X0124451Y0391115D01*
X0124469Y0390962D01*
X0124483Y0390810D01*
X0124493Y0390657D01*
X0124499Y0390503D01*
X0124501Y0390350D01*
X0124499Y0390197D01*
X0124493Y0390043D01*
X0124483Y0389890D01*
X0124469Y0389738D01*
X0124451Y0389585D01*
X0124429Y0389434D01*
X0124404Y0389283D01*
X0124374Y0389132D01*
X0124340Y0388982D01*
X0124303Y0388834D01*
X0124262Y0388686D01*
X0124217Y0388540D01*
X0124168Y0388394D01*
X0124115Y0388250D01*
X0124059Y0388108D01*
X0123999Y0387967D01*
X0123935Y0387827D01*
X0123868Y0387689D01*
X0123797Y0387553D01*
X0123722Y0387419D01*
X0123645Y0387287D01*
X0123563Y0387157D01*
X0123479Y0387029D01*
X0123391Y0386903D01*
X0123300Y0386780D01*
X0123206Y0386659D01*
X0123108Y0386541D01*
X0123008Y0386425D01*
X0122904Y0386312D01*
X0122798Y0386201D01*
X0122689Y0386093D01*
X0122577Y0385988D01*
X0122463Y0385887D01*
X0122345Y0385788D01*
X0122226Y0385692D01*
X0122104Y0385599D01*
X0121979Y0385510D01*
X0121852Y0385423D01*
X0121723Y0385341D01*
X0121592Y0385261D01*
X0121459Y0385185D01*
X0121324Y0385112D01*
X0121187Y0385043D01*
X0121048Y0384978D01*
X0120908Y0384916D01*
X0120766Y0384858D01*
X0120623Y0384803D01*
X0120478Y0384752D01*
X0120332Y0384705D01*
X0120185Y0384662D01*
X0120037Y0384623D01*
X0119888Y0384587D01*
X0119738Y0384556D01*
X0119587Y0384528D01*
X0119436Y0384504D01*
X0119283Y0384484D01*
X0119131Y0384468D01*
X0118978Y0384456D01*
X0118825Y0384448D01*
X0118672Y0384444D01*
X0118518Y0384444D01*
X0118365Y0384448D01*
X0118212Y0384456D01*
X0118059Y0384468D01*
X0117907Y0384484D01*
X0117754Y0384504D01*
X0117603Y0384528D01*
X0117452Y0384556D01*
X0117302Y0384587D01*
X0117153Y0384623D01*
X0117005Y0384662D01*
X0116858Y0384705D01*
X0116712Y0384752D01*
X0116567Y0384803D01*
X0116424Y0384858D01*
X0116282Y0384916D01*
X0116142Y0384978D01*
X0116003Y0385043D01*
X0115866Y0385112D01*
X0115731Y0385185D01*
X0115598Y0385261D01*
X0115467Y0385341D01*
X0115338Y0385423D01*
X0115211Y0385510D01*
X0115086Y0385599D01*
X0114964Y0385692D01*
X0114845Y0385788D01*
X0114727Y0385887D01*
X0114613Y0385988D01*
X0114501Y0386093D01*
X0114392Y0386201D01*
X0114286Y0386312D01*
X0114182Y0386425D01*
X0114082Y0386541D01*
X0113984Y0386659D01*
X0113890Y0386780D01*
X0113799Y0386903D01*
X0113711Y0387029D01*
X0113627Y0387157D01*
X0113545Y0387287D01*
X0113468Y0387419D01*
X0113393Y0387553D01*
X0113322Y0387689D01*
X0113255Y0387827D01*
X0113191Y0387967D01*
X0113131Y0388108D01*
X0113075Y0388250D01*
X0113022Y0388394D01*
X0112973Y0388540D01*
X0112928Y0388686D01*
X0112887Y0388834D01*
X0112850Y0388982D01*
X0112816Y0389132D01*
X0112786Y0389283D01*
X0112761Y0389434D01*
X0112739Y0389585D01*
X0112721Y0389738D01*
X0112707Y0389890D01*
X0112697Y0390043D01*
X0112691Y0390197D01*
X0112689Y0390350D01*
X0426595Y0035100D02*
X0426597Y0035261D01*
X0426603Y0035421D01*
X0426613Y0035582D01*
X0426627Y0035742D01*
X0426645Y0035902D01*
X0426666Y0036061D01*
X0426692Y0036220D01*
X0426722Y0036378D01*
X0426755Y0036535D01*
X0426793Y0036692D01*
X0426834Y0036847D01*
X0426879Y0037001D01*
X0426928Y0037154D01*
X0426981Y0037306D01*
X0427037Y0037457D01*
X0427098Y0037606D01*
X0427161Y0037754D01*
X0427229Y0037900D01*
X0427300Y0038044D01*
X0427374Y0038186D01*
X0427452Y0038327D01*
X0427534Y0038465D01*
X0427619Y0038602D01*
X0427707Y0038736D01*
X0427799Y0038868D01*
X0427894Y0038998D01*
X0427992Y0039126D01*
X0428093Y0039251D01*
X0428197Y0039373D01*
X0428304Y0039493D01*
X0428414Y0039610D01*
X0428527Y0039725D01*
X0428643Y0039836D01*
X0428762Y0039945D01*
X0428883Y0040050D01*
X0429007Y0040153D01*
X0429133Y0040253D01*
X0429261Y0040349D01*
X0429392Y0040442D01*
X0429526Y0040532D01*
X0429661Y0040619D01*
X0429799Y0040702D01*
X0429938Y0040782D01*
X0430080Y0040858D01*
X0430223Y0040931D01*
X0430368Y0041000D01*
X0430515Y0041066D01*
X0430663Y0041128D01*
X0430813Y0041186D01*
X0430964Y0041241D01*
X0431117Y0041292D01*
X0431271Y0041339D01*
X0431426Y0041382D01*
X0431582Y0041421D01*
X0431738Y0041457D01*
X0431896Y0041488D01*
X0432054Y0041516D01*
X0432213Y0041540D01*
X0432373Y0041560D01*
X0432533Y0041576D01*
X0432693Y0041588D01*
X0432854Y0041596D01*
X0433015Y0041600D01*
X0433175Y0041600D01*
X0433336Y0041596D01*
X0433497Y0041588D01*
X0433657Y0041576D01*
X0433817Y0041560D01*
X0433977Y0041540D01*
X0434136Y0041516D01*
X0434294Y0041488D01*
X0434452Y0041457D01*
X0434608Y0041421D01*
X0434764Y0041382D01*
X0434919Y0041339D01*
X0435073Y0041292D01*
X0435226Y0041241D01*
X0435377Y0041186D01*
X0435527Y0041128D01*
X0435675Y0041066D01*
X0435822Y0041000D01*
X0435967Y0040931D01*
X0436110Y0040858D01*
X0436252Y0040782D01*
X0436391Y0040702D01*
X0436529Y0040619D01*
X0436664Y0040532D01*
X0436798Y0040442D01*
X0436929Y0040349D01*
X0437057Y0040253D01*
X0437183Y0040153D01*
X0437307Y0040050D01*
X0437428Y0039945D01*
X0437547Y0039836D01*
X0437663Y0039725D01*
X0437776Y0039610D01*
X0437886Y0039493D01*
X0437993Y0039373D01*
X0438097Y0039251D01*
X0438198Y0039126D01*
X0438296Y0038998D01*
X0438391Y0038868D01*
X0438483Y0038736D01*
X0438571Y0038602D01*
X0438656Y0038465D01*
X0438738Y0038327D01*
X0438816Y0038186D01*
X0438890Y0038044D01*
X0438961Y0037900D01*
X0439029Y0037754D01*
X0439092Y0037606D01*
X0439153Y0037457D01*
X0439209Y0037306D01*
X0439262Y0037154D01*
X0439311Y0037001D01*
X0439356Y0036847D01*
X0439397Y0036692D01*
X0439435Y0036535D01*
X0439468Y0036378D01*
X0439498Y0036220D01*
X0439524Y0036061D01*
X0439545Y0035902D01*
X0439563Y0035742D01*
X0439577Y0035582D01*
X0439587Y0035421D01*
X0439593Y0035261D01*
X0439595Y0035100D01*
X0439593Y0034939D01*
X0439587Y0034779D01*
X0439577Y0034618D01*
X0439563Y0034458D01*
X0439545Y0034298D01*
X0439524Y0034139D01*
X0439498Y0033980D01*
X0439468Y0033822D01*
X0439435Y0033665D01*
X0439397Y0033508D01*
X0439356Y0033353D01*
X0439311Y0033199D01*
X0439262Y0033046D01*
X0439209Y0032894D01*
X0439153Y0032743D01*
X0439092Y0032594D01*
X0439029Y0032446D01*
X0438961Y0032300D01*
X0438890Y0032156D01*
X0438816Y0032014D01*
X0438738Y0031873D01*
X0438656Y0031735D01*
X0438571Y0031598D01*
X0438483Y0031464D01*
X0438391Y0031332D01*
X0438296Y0031202D01*
X0438198Y0031074D01*
X0438097Y0030949D01*
X0437993Y0030827D01*
X0437886Y0030707D01*
X0437776Y0030590D01*
X0437663Y0030475D01*
X0437547Y0030364D01*
X0437428Y0030255D01*
X0437307Y0030150D01*
X0437183Y0030047D01*
X0437057Y0029947D01*
X0436929Y0029851D01*
X0436798Y0029758D01*
X0436664Y0029668D01*
X0436529Y0029581D01*
X0436391Y0029498D01*
X0436252Y0029418D01*
X0436110Y0029342D01*
X0435967Y0029269D01*
X0435822Y0029200D01*
X0435675Y0029134D01*
X0435527Y0029072D01*
X0435377Y0029014D01*
X0435226Y0028959D01*
X0435073Y0028908D01*
X0434919Y0028861D01*
X0434764Y0028818D01*
X0434608Y0028779D01*
X0434452Y0028743D01*
X0434294Y0028712D01*
X0434136Y0028684D01*
X0433977Y0028660D01*
X0433817Y0028640D01*
X0433657Y0028624D01*
X0433497Y0028612D01*
X0433336Y0028604D01*
X0433175Y0028600D01*
X0433015Y0028600D01*
X0432854Y0028604D01*
X0432693Y0028612D01*
X0432533Y0028624D01*
X0432373Y0028640D01*
X0432213Y0028660D01*
X0432054Y0028684D01*
X0431896Y0028712D01*
X0431738Y0028743D01*
X0431582Y0028779D01*
X0431426Y0028818D01*
X0431271Y0028861D01*
X0431117Y0028908D01*
X0430964Y0028959D01*
X0430813Y0029014D01*
X0430663Y0029072D01*
X0430515Y0029134D01*
X0430368Y0029200D01*
X0430223Y0029269D01*
X0430080Y0029342D01*
X0429938Y0029418D01*
X0429799Y0029498D01*
X0429661Y0029581D01*
X0429526Y0029668D01*
X0429392Y0029758D01*
X0429261Y0029851D01*
X0429133Y0029947D01*
X0429007Y0030047D01*
X0428883Y0030150D01*
X0428762Y0030255D01*
X0428643Y0030364D01*
X0428527Y0030475D01*
X0428414Y0030590D01*
X0428304Y0030707D01*
X0428197Y0030827D01*
X0428093Y0030949D01*
X0427992Y0031074D01*
X0427894Y0031202D01*
X0427799Y0031332D01*
X0427707Y0031464D01*
X0427619Y0031598D01*
X0427534Y0031735D01*
X0427452Y0031873D01*
X0427374Y0032014D01*
X0427300Y0032156D01*
X0427229Y0032300D01*
X0427161Y0032446D01*
X0427098Y0032594D01*
X0427037Y0032743D01*
X0426981Y0032894D01*
X0426928Y0033046D01*
X0426879Y0033199D01*
X0426834Y0033353D01*
X0426793Y0033508D01*
X0426755Y0033665D01*
X0426722Y0033822D01*
X0426692Y0033980D01*
X0426666Y0034139D01*
X0426645Y0034298D01*
X0426627Y0034458D01*
X0426613Y0034618D01*
X0426603Y0034779D01*
X0426597Y0034939D01*
X0426595Y0035100D01*
D12*
X0199595Y0138850D03*
X0199595Y0190850D03*
X0114595Y0190850D03*
X0114595Y0138850D03*
M02*
