%
M48
M72
T01C0.01300
T02C0.01378
T03C0.01400
T04C0.03150
T05C0.03200
T06C0.03400
T07C0.03543
T08C0.03937
T09C0.04000
T10C0.04016
T11C0.04400
T12C0.05118
T13C0.05512
T14C0.11000
T15C0.11811
T16C0.13000
T17C0.17717
T18C0.26000
%
T01
X205095Y303350
T02
X207095Y289100
X232095Y276600
X207095Y264100
X257095Y249100
X307095Y269100
X319595Y276600
X269595Y159100
X269595Y149100
X279595Y89100
X239595Y84100
X234595Y66600
X205595Y65100
X200095Y67600
X199595Y84100
T03
X199595Y91600
X211595Y93600
X176595Y69600
X166095Y58100
X172095Y44100
X149595Y39100
X87095Y69100
X72095Y166600
X84595Y171600
X122595Y233100
X147095Y279100
X145095Y291100
X164595Y279100
X174595Y280100
X194595Y266600
X182095Y236600
X199595Y204100
X217095Y214100
X224595Y231600
X249595Y199100
X269595Y199100
X247095Y169100
X252095Y146600
X269095Y136100
X297095Y124100
X302095Y139100
X307095Y139100
X312095Y139100
X317095Y139100
X322095Y139100
X327095Y139100
X332095Y139100
X337095Y139100
X342095Y139100
X347095Y139100
X352095Y139100
X352095Y146600
X347095Y146600
X342095Y146600
X337095Y146600
X332095Y146600
X327095Y146600
X322095Y146600
X317095Y146600
X317095Y154100
X322095Y154100
X327095Y154100
X332095Y154100
X337095Y154100
X342095Y154100
X347095Y154100
X352095Y154100
X352095Y161600
X347095Y161600
X342095Y161600
X337095Y161600
X332095Y161600
X327095Y161600
X322095Y161600
X317095Y161600
X312095Y161600
X312095Y154100
X312095Y146600
X307095Y146600
X302095Y161600
X302095Y169100
X302095Y176600
X302095Y184100
X312095Y184100
X317095Y184100
X322095Y184100
X327095Y184100
X332095Y184100
X337095Y184100
X342095Y184100
X347095Y184100
X352095Y184100
X352095Y176600
X347095Y176600
X342095Y176600
X337095Y176600
X332095Y176600
X327095Y176600
X322095Y176600
X317095Y176600
X317095Y169100
X322095Y169100
X327095Y169100
X332095Y169100
X337095Y169100
X342095Y169100
X347095Y169100
X352095Y169100
X312095Y169100
X312095Y176600
X319595Y111600
X287095Y61600
X327095Y24100
X357095Y24100
X412095Y24100
X242095Y41600
X334595Y241600
X364595Y269100
X364595Y284100
X344595Y286600
X319595Y284100
X297095Y279100
X284595Y288600
X287595Y264100
X277095Y264100
X254595Y281600
X276095Y318600
X309595Y339100
X316595Y342100
X323595Y316100
X319095Y379600
X314595Y394100
X244595Y376600
X184595Y316600
X154595Y319100
X154595Y324100
X124595Y336600
X74595Y364100
X84595Y289100
X424595Y371600
X444595Y321600
T04
X374595Y357289
X374595Y365163
X374595Y373037
X374595Y380911
X306406Y54100
X298532Y54100
X290658Y54100
X282784Y54100
T05
X94595Y151600
X84595Y151600
X84595Y184100
X94595Y184100
X94595Y216600
X84595Y216600
X84595Y249100
X94595Y249100
T06
X151595Y175600
X151595Y165600
X151595Y155600
T07
X139595Y211600
X139595Y229100
X139595Y246600
X139595Y264100
X179595Y264100
X179595Y246600
X179595Y229100
X179595Y211600
X144620Y82075
X134595Y82125
X124595Y82075
X114595Y82125
X290070Y354075
X290120Y364100
X290070Y374100
X290120Y384100
X305120Y384100
X305070Y374100
X305120Y364100
X305070Y354075
X332570Y354075
X332620Y364100
X332570Y374100
X332620Y384100
X399595Y389100
X432620Y359100
X432570Y349100
X432620Y339100
X432570Y329075
X399595Y349100
T08
X214595Y116600
X204595Y116600
X92095Y109100
X92095Y99100
X94595Y296600
X94595Y306600
T09
X140095Y308350
X140095Y298350
X150095Y298350
X150095Y308350
X160095Y308350
X160095Y298350
X170095Y298350
X170095Y308350
X180095Y308350
X180095Y298350
X190095Y298350
X190095Y308350
X200095Y308350
X200095Y298350
X210095Y298350
X210095Y308350
X220095Y308350
X220095Y298350
X230095Y298350
X230095Y308350
X240095Y308350
X240095Y298350
X250095Y298350
X250095Y308350
X260095Y308350
X260095Y298350
X270095Y298350
X270095Y308350
X280095Y308350
X280095Y298350
X290095Y298350
X290095Y308350
X300095Y308350
X300095Y298350
X310095Y298350
X310095Y308350
X320095Y308350
X320095Y298350
X330095Y298350
X330095Y308350
X328595Y327100
X318595Y326100
X308595Y327100
X298595Y326100
X288595Y327100
X278595Y326100
X268595Y327100
X258595Y326100
X248595Y327100
X238595Y326100
X228595Y327100
X218595Y326100
X208595Y327100
X198595Y326100
X188595Y327100
X178595Y326100
X168595Y327100
X291095Y180600
X291095Y170600
X291095Y160600
X291095Y150600
X291095Y140600
X328595Y84850
X338595Y85850
X348595Y84850
X178595Y84850
X168595Y85850
X158595Y84850
X338595Y326100
X348595Y327100
X358595Y326100
T10
X212095Y191600
X212095Y181600
X202095Y181850
X202095Y148350
X212095Y149600
X212095Y139600
X137095Y139600
X137095Y149600
X112095Y148350
X112095Y181850
X137095Y181600
X137095Y191600
X94595Y321600
X94595Y331600
X94595Y341600
X94595Y351600
X94595Y361600
X94595Y371600
T11
X141595Y110100
X181595Y110100
T12
X105390Y271600
X79800Y271600
T13
X207253Y44828
X226938Y44828
X342253Y52328
X361938Y52328
X382253Y52328
X401938Y52328
T14
X349345Y110350
X349095Y212799
X349095Y303350
X120845Y303100
X120845Y212549
X120845Y110350
T15
X118595Y370350
X118595Y390350
X227595Y390350
X227595Y370350
T16
X81095Y35100
X257095Y25600
X433095Y35100
X257095Y389600
T17
X257095Y344600
X257095Y69100
T18
X118345Y43100
M30
